<svg width="260" height="340" viewBox="0 0 262 342" fill="none" xmlns="http://www.w3.org/2000/svg"><path fill-rule="evenodd" clip-rule="evenodd" d="M232.799 59.2c38.354 38.355 38.354 100.538 0 138.892l-59.707 59.707c-38.354 38.354-100.537 38.354-138.891 0-38.354-38.354-38.354-100.537 0-138.891l59.707-59.707c38.354-38.354 100.537-38.354 138.891 0z" fill="url(#paint0_linear_2_2199)"/><path fill-rule="evenodd" clip-rule="evenodd" d="M236.805 136.978c15.476 15.476 15.476 40.568 0 56.044L99.522 330.305c-15.476 15.476-40.568 15.476-56.044 0-15.476-15.476-15.476-40.568 0-56.044l137.283-137.283c15.476-15.476 40.568-15.476 56.044 0z" fill="url(#paint1_linear_2_2199)"/><path fill-rule="evenodd" clip-rule="evenodd" d="M84.607 220.393c5.858 5.858 5.858 15.356 0 21.214l-59 59c-5.858 5.857-15.356 5.857-21.214 0-5.857-5.858-5.857-15.356 0-21.214l59-59c5.858-5.857 15.356-5.857 21.214 0z" fill="url(#paint2_linear_2_2199)"/><path fill-rule="evenodd" clip-rule="evenodd" d="M183.299 7.322c9.763 9.763 9.763 25.593 0 35.356l-50.621 50.62c-9.763 9.764-25.593 9.764-35.356 0-9.763-9.762-9.763-25.591 0-35.355l50.622-50.62c9.763-9.764 25.592-9.764 35.355 0z" fill="url(#paint3_linear_2_2199)"/><defs><linearGradient id="paint0_linear_2_2199" x1="-123.01" y1="-218.157" x2="-816.617" y2="435.155" gradientUnits="userSpaceOnUse"><stop stop-color="#735FF3"/><stop offset="1" stop-color="#5272F5"/></linearGradient><linearGradient id="paint1_linear_2_2199" x1="133.048" y1="73.28" x2="-50.392" y2="246.063" gradientUnits="userSpaceOnUse"><stop stop-color="#30CDFC"/><stop offset="1" stop-color="#2F96F9"/></linearGradient><linearGradient id="paint2_linear_2_2199" x1="48.139" y1="199.681" x2="-14.5" y2="258.681" gradientUnits="userSpaceOnUse"><stop stop-color="#30CDFC"/><stop offset="1" stop-color="#2F96F9"/></linearGradient><linearGradient id="paint3_linear_2_2199" x1="143.433" y1="-1.872" x2="89.689" y2="48.75" gradientUnits="userSpaceOnUse"><stop stop-color="#30CDFC"/><stop offset="1" stop-color="#2F96F9"/></linearGradient></defs></svg>