<svg width="283" height="189" viewBox="0 0 283 189" fill="none" xmlns="http://www.w3.org/2000/svg">
<g filter="url(#filter0_d_2_2593)">
<rect x="0.732056" y="0.000732422" width="281.925" height="188.213" rx="11.8125" fill="#3DABF4"/>
<mask id="mask0_2_2593" style="mask-type:alpha" maskUnits="userSpaceOnUse" x="0" y="0" width="283" height="189">
<rect x="0.732056" y="0.000732422" width="281.925" height="188.213" rx="11.8125" fill="white"/>
</mask>
<g mask="url(#mask0_2_2593)">
<path d="M35.8516 115.004L-67.4991 218.355" stroke="url(#paint0_linear_2_2593)" stroke-width="45.864" stroke-linecap="round" stroke-linejoin="round"/>
<path d="M-5.7215 192.192L97.0447 89.4262" stroke="url(#paint1_linear_2_2593)" stroke-width="20.5632" stroke-linecap="round" stroke-linejoin="round"/>
<path d="M118.604 104.926L126.453 97.0769" stroke="url(#paint2_linear_2_2593)" stroke-width="12.4992" stroke-linecap="round" stroke-linejoin="round"/>
<path d="M81.6351 146.958L-21.1312 249.724" stroke="url(#paint3_linear_2_2593)" stroke-width="20.5632" stroke-linecap="round" stroke-linejoin="round"/>
<path d="M72.0326 96.9607L-10.6479 179.641" stroke="url(#paint4_linear_2_2593)" stroke-width="16.5312" stroke-linecap="round" stroke-linejoin="round"/>
<path d="M13.9297 84.6407L23.7413 74.8292" stroke="#D25EBF" stroke-width="15.624" stroke-linecap="round" stroke-linejoin="round"/>
</g>
</g>
<path d="M71.0276 77.7971V86.8388L80.1975 80.5545V115.182H88.5979V69.1403H81.993L71.0276 77.7971ZM114.55 68.2425C111.985 68.2425 109.741 68.8196 107.753 69.9098C105.765 70.9999 104.098 72.5389 102.751 74.5909C101.34 76.6429 100.314 79.1438 99.6088 82.0935C98.8393 85.0433 98.5187 88.3778 98.5187 92.097C98.5187 95.8163 98.8393 99.0866 99.5447 102.036C100.25 104.986 101.276 107.551 102.623 109.603C103.969 111.655 105.637 113.258 107.689 114.413C109.676 115.567 111.985 116.08 114.678 116.08C117.179 116.08 119.423 115.567 121.411 114.477C123.399 113.387 125.066 111.783 126.413 109.731C127.76 107.679 128.786 105.179 129.491 102.229C130.196 99.279 130.581 96.0086 130.581 92.2894C130.581 88.506 130.196 85.1074 129.427 82.0935C128.657 79.1438 127.631 76.5788 126.221 74.5268C124.81 72.4748 123.143 70.9358 121.155 69.8456C119.167 68.8196 116.987 68.2425 114.55 68.2425ZM114.55 77.3483C116.73 77.3483 118.462 78.6949 119.872 81.2599C121.283 83.889 121.988 87.5441 121.988 92.2253C121.988 97.1629 121.219 100.882 119.808 103.319C118.397 105.756 116.666 106.974 114.614 106.974C113.588 106.974 112.626 106.718 111.728 106.14C110.831 105.627 109.997 104.73 109.356 103.511C108.65 102.357 108.073 100.818 107.689 98.9584C107.304 97.0988 107.111 94.8544 107.111 92.2894C107.111 89.7244 107.304 87.48 107.689 85.5563C108.073 83.6966 108.586 82.1576 109.292 80.9393C109.933 79.7209 110.767 78.8231 111.664 78.246C112.562 77.6689 113.524 77.3483 114.55 77.3483ZM153.689 68.2425C151.124 68.2425 148.879 68.8196 146.891 69.9098C144.904 70.9999 143.236 72.5389 141.89 74.5909C140.479 76.6429 139.453 79.1438 138.748 82.0935C137.978 85.0433 137.657 88.3778 137.657 92.097C137.657 95.8163 137.978 99.0866 138.683 102.036C139.389 104.986 140.415 107.551 141.761 109.603C143.108 111.655 144.775 113.258 146.827 114.413C148.815 115.567 151.124 116.08 153.817 116.08C156.318 116.08 158.562 115.567 160.55 114.477C162.538 113.387 164.205 111.783 165.552 109.731C166.898 107.679 167.924 105.179 168.63 102.229C169.335 99.279 169.72 96.0086 169.72 92.2894C169.72 88.506 169.335 85.1074 168.566 82.0935C167.796 79.1438 166.77 76.5788 165.359 74.5268C163.949 72.4748 162.281 70.9358 160.294 69.8456C158.306 68.8196 156.125 68.2425 153.689 68.2425ZM153.689 77.3483C155.869 77.3483 157.6 78.6949 159.011 81.2599C160.422 83.889 161.127 87.5441 161.127 92.2253C161.127 97.1629 160.358 100.882 158.947 103.319C157.536 105.756 155.805 106.974 153.753 106.974C152.727 106.974 151.765 106.718 150.867 106.14C149.969 105.627 149.136 104.73 148.495 103.511C147.789 102.357 147.212 100.818 146.827 98.9584C146.443 97.0988 146.25 94.8544 146.25 92.2894C146.25 89.7244 146.443 87.48 146.827 85.5563C147.212 83.6966 147.725 82.1576 148.43 80.9393C149.072 79.7209 149.905 78.8231 150.803 78.246C151.701 77.6689 152.663 77.3483 153.689 77.3483ZM192.828 68.2425C190.263 68.2425 188.018 68.8196 186.03 69.9098C184.042 70.9999 182.375 72.5389 181.029 74.5909C179.618 76.6429 178.592 79.1438 177.886 82.0935C177.117 85.0433 176.796 88.3778 176.796 92.097C176.796 95.8163 177.117 99.0866 177.822 102.036C178.528 104.986 179.554 107.551 180.9 109.603C182.247 111.655 183.914 113.258 185.966 114.413C187.954 115.567 190.263 116.08 192.956 116.08C195.457 116.08 197.701 115.567 199.689 114.477C201.677 113.387 203.344 111.783 204.691 109.731C206.037 107.679 207.063 105.179 207.769 102.229C208.474 99.279 208.859 96.0086 208.859 92.2894C208.859 88.506 208.474 85.1074 207.705 82.0935C206.935 79.1438 205.909 76.5788 204.498 74.5268C203.088 72.4748 201.42 70.9358 199.432 69.8456C197.445 68.8196 195.264 68.2425 192.828 68.2425ZM192.828 77.3483C195.008 77.3483 196.739 78.6949 198.15 81.2599C199.561 83.889 200.266 87.5441 200.266 92.2253C200.266 97.1629 199.497 100.882 198.086 103.319C196.675 105.756 194.944 106.974 192.892 106.974C191.866 106.974 190.904 106.718 190.006 106.14C189.108 105.627 188.275 104.73 187.633 103.511C186.928 102.357 186.351 100.818 185.966 98.9584C185.581 97.0988 185.389 94.8544 185.389 92.2894C185.389 89.7244 185.581 87.48 185.966 85.5563C186.351 83.6966 186.864 82.1576 187.569 80.9393C188.211 79.7209 189.044 78.8231 189.942 78.246C190.84 77.6689 191.802 77.3483 192.828 77.3483Z" fill="white"/>
<path d="M101.901 132.595C101.901 131.38 101.658 130.287 101.233 129.254C100.808 128.252 100.23 127.371 99.5014 126.642C98.7724 125.913 97.9219 125.366 96.9499 124.971C95.9779 124.576 94.9755 124.364 93.9428 124.364C92.7885 124.364 91.7862 124.576 90.9357 124.971C90.0852 125.366 89.5384 125.852 89.2954 126.429V124.789H85.5593V146.902H89.4169V138.792C89.6599 139.399 90.2067 139.885 91.0268 140.28C91.8469 140.675 92.8493 140.857 94.0035 140.857C95.0363 140.857 96.0083 140.675 96.9803 140.25C97.9219 139.855 98.7724 139.278 99.5014 138.549C100.23 137.82 100.808 136.969 101.233 135.937C101.658 134.934 101.901 133.81 101.901 132.595ZM98.013 132.595C98.013 133.203 97.8915 133.78 97.6789 134.296C97.4359 134.813 97.1322 135.238 96.7373 135.602C96.3424 135.967 95.8564 136.271 95.3097 136.453C94.7629 136.666 94.1554 136.757 93.4872 136.757C92.5152 136.757 91.6343 136.574 90.9053 136.18C90.1459 135.785 89.6599 135.299 89.4169 134.691V130.53C89.6599 129.953 90.1459 129.467 90.9053 129.072C91.6343 128.677 92.5152 128.464 93.4872 128.464C94.1554 128.464 94.7629 128.586 95.3097 128.768C95.8564 128.981 96.3424 129.254 96.7373 129.619C97.1322 129.983 97.4359 130.439 97.6789 130.925C97.8915 131.441 98.013 131.988 98.013 132.595ZM103.196 124.789L109.454 139.46L106.264 146.902H110.486L119.842 124.789H115.559L111.458 134.509L107.358 124.789H103.196ZM137.034 121.174L135.758 118.106C134.756 118.653 133.723 119.048 132.69 119.291C131.627 119.534 130.534 119.747 129.44 119.99C127.952 120.324 126.737 120.84 125.795 121.508C124.823 122.177 124.094 122.997 123.547 123.938C123.001 124.88 122.606 125.913 122.393 127.067C122.18 128.221 122.089 129.436 122.089 130.712C122.089 132.413 122.272 133.871 122.666 135.147C123.061 136.423 123.638 137.455 124.367 138.306C125.096 139.156 125.977 139.794 127.01 140.219C128.043 140.645 129.197 140.857 130.473 140.857C131.566 140.857 132.629 140.675 133.601 140.25C134.573 139.855 135.394 139.308 136.092 138.579C136.791 137.881 137.338 137.06 137.763 136.088C138.158 135.147 138.37 134.114 138.37 133.021C138.37 131.957 138.158 130.985 137.793 130.074C137.429 129.163 136.912 128.404 136.244 127.735C135.576 127.097 134.786 126.581 133.875 126.217C132.964 125.852 131.961 125.67 130.928 125.67C129.835 125.67 128.833 125.882 127.982 126.277C127.132 126.672 126.494 127.128 126.099 127.675C126.099 127.249 126.129 126.854 126.251 126.429C126.342 126.004 126.554 125.639 126.889 125.275C127.223 124.91 127.709 124.607 128.316 124.303C128.924 123.999 129.744 123.756 130.777 123.574C131.202 123.513 131.718 123.422 132.295 123.301C132.872 123.179 133.45 123.027 134.057 122.845C134.634 122.663 135.181 122.45 135.728 122.177C136.244 121.903 136.669 121.569 137.034 121.174ZM130.382 136.757C129.774 136.757 129.227 136.666 128.711 136.483C128.195 136.301 127.739 136.028 127.344 135.663C126.949 135.299 126.646 134.873 126.403 134.327C126.16 133.78 126.008 133.172 126.008 132.443C126.19 132.018 126.433 131.623 126.737 131.289C127.04 130.955 127.375 130.682 127.769 130.439C128.164 130.226 128.59 130.074 129.045 129.953C129.47 129.831 129.926 129.77 130.382 129.77C130.928 129.77 131.475 129.862 131.992 130.044C132.478 130.226 132.933 130.439 133.298 130.742C133.662 131.046 133.966 131.411 134.179 131.836C134.391 132.261 134.513 132.747 134.513 133.264C134.513 134.357 134.118 135.238 133.328 135.845C132.538 136.453 131.536 136.757 130.382 136.757ZM140.097 136.787L140.766 140.311C140.917 140.371 141.1 140.432 141.343 140.493C141.586 140.554 141.829 140.554 142.102 140.554C143.833 140.554 145.14 139.612 146.051 137.698C146.962 135.785 147.478 132.838 147.6 128.89H152.065V140.432H155.923V124.789H144.107C144.046 126.672 143.985 128.282 143.894 129.588C143.803 130.925 143.682 132.018 143.53 132.899C143.378 133.78 143.196 134.479 142.983 134.965C142.77 135.481 142.527 135.876 142.224 136.119C141.92 136.392 141.616 136.574 141.252 136.635C140.887 136.726 140.523 136.787 140.097 136.787ZM168.02 136.969C166.805 136.969 165.802 136.757 164.982 136.271C164.132 135.785 163.646 135.025 163.464 133.993H175.067C175.097 133.81 175.128 133.598 175.128 133.355C175.128 133.112 175.158 132.869 175.158 132.626C175.158 131.532 174.976 130.499 174.611 129.497C174.247 128.525 173.73 127.644 173.062 126.885C172.394 126.125 171.604 125.518 170.662 125.062C169.721 124.607 168.688 124.364 167.534 124.364C166.288 124.364 165.165 124.607 164.193 125.032C163.221 125.488 162.37 126.095 161.671 126.854C160.973 127.614 160.426 128.495 160.062 129.467C159.697 130.469 159.515 131.532 159.515 132.626C159.515 133.901 159.727 135.056 160.153 136.058C160.578 137.091 161.155 137.941 161.914 138.64C162.643 139.369 163.524 139.916 164.557 140.28C165.59 140.675 166.683 140.857 167.898 140.857C169.356 140.857 170.602 140.584 171.665 140.037C172.728 139.49 173.518 138.822 174.004 138.002L172.819 135.025C172.363 135.633 171.695 136.088 170.814 136.453C169.903 136.817 168.992 136.969 168.02 136.969ZM171.209 130.834H163.615C163.767 130.013 164.223 129.376 164.982 128.95C165.711 128.525 166.562 128.282 167.534 128.282C168.475 128.282 169.296 128.525 169.994 128.95C170.662 129.376 171.088 130.013 171.209 130.834ZM191.306 118.501L188.178 118.046C188.117 118.592 187.935 119.078 187.57 119.443C187.206 119.838 186.689 120.02 186.082 120.02C185.414 120.02 184.928 119.838 184.563 119.443C184.199 119.078 184.016 118.592 183.986 118.046L180.827 118.501C180.827 119.2 180.948 119.838 181.222 120.415C181.495 121.022 181.86 121.508 182.346 121.934C182.832 122.359 183.378 122.693 184.016 122.936C184.654 123.179 185.353 123.27 186.082 123.27C186.78 123.27 187.449 123.179 188.087 122.936C188.724 122.693 189.271 122.359 189.757 121.934C190.243 121.508 190.608 121.022 190.881 120.415C191.154 119.838 191.306 119.2 191.306 118.501ZM182.528 124.789H178.731V140.432H182.589L189.666 131.046V140.432H193.463V124.789H189.605L182.528 134.175V124.789Z" fill="white"/>
<path opacity="0.198847" fill-rule="evenodd" clip-rule="evenodd" d="M168.75 0.000610352H11.8131C5.28925 0.000610352 0.000610352 5.28925 0.000610352 11.8131V168.75L168.75 0.000610352Z" fill="white"/>
<defs>
<filter id="filter0_d_2_2593" x="-26.7679" y="-24.9993" width="336.925" height="243.213" filterUnits="userSpaceOnUse" color-interpolation-filters="sRGB">
<feFlood flood-opacity="0" result="BackgroundImageFix"/>
<feColorMatrix in="SourceAlpha" type="matrix" values="0 0 0 0 0 0 0 0 0 0 0 0 0 0 0 0 0 0 127 0" result="hardAlpha"/>
<feOffset dy="2.5"/>
<feGaussianBlur stdDeviation="13.75"/>
<feColorMatrix type="matrix" values="0 0 0 0 0.56969 0 0 0 0 0.56969 0 0 0 0 0.56969 0 0 0 0.5 0"/>
<feBlend mode="normal" in2="BackgroundImageFix" result="effect1_dropShadow_2_2593"/>
<feBlend mode="normal" in="SourceGraphic" in2="effect1_dropShadow_2_2593" result="shape"/>
</filter>
<linearGradient id="paint0_linear_2_2593" x1="-9.44965" y1="60.1415" x2="-119.175" y2="163.492" gradientUnits="userSpaceOnUse">
<stop stop-color="#4B91F9"/>
<stop offset="1" stop-color="#4635F6"/>
</linearGradient>
<linearGradient id="paint1_linear_2_2593" x1="53.0856" y1="57.7693" x2="-10.3144" y2="156.332" gradientUnits="userSpaceOnUse">
<stop stop-color="#2C65FA"/>
<stop offset="1" stop-color="#21BAFE"/>
</linearGradient>
<linearGradient id="paint2_linear_2_2593" x1="126.177" y1="122.382" x2="140.901" y2="92.9167" gradientUnits="userSpaceOnUse">
<stop stop-color="#2C65FA"/>
<stop offset="1" stop-color="#21BAFE"/>
</linearGradient>
<linearGradient id="paint3_linear_2_2593" x1="48.8978" y1="29.7532" x2="-100.422" y2="175.064" gradientUnits="userSpaceOnUse">
<stop stop-color="#F54464"/>
<stop offset="1" stop-color="#F56E5A"/>
</linearGradient>
<linearGradient id="paint4_linear_2_2593" x1="4.2078" y1="270.02" x2="136.599" y2="151.087" gradientUnits="userSpaceOnUse">
<stop stop-color="#4B91F9"/>
<stop offset="1" stop-color="#4635F6"/>
</linearGradient>
</defs>
</svg>
