<svg width="283" height="189" viewBox="0 0 283 189" fill="none" xmlns="http://www.w3.org/2000/svg">
<g filter="url(#filter0_d_2_2625)">
<rect x="0.731964" y="0.000732422" width="281.925" height="188.213" rx="11.8125" fill="#A84FD4"/>
<mask id="mask0_2_2625" style="mask-type:alpha" maskUnits="userSpaceOnUse" x="0" y="0" width="283" height="189">
<rect x="0.731964" y="0.000732422" width="281.925" height="188.213" rx="11.8125" fill="white"/>
</mask>
<g mask="url(#mask0_2_2625)">
<path d="M35.8515 115.004L-67.4992 218.355" stroke="url(#paint0_linear_2_2625)" stroke-width="45.864" stroke-linecap="round" stroke-linejoin="round"/>
<path d="M-5.72153 192.192L97.0447 89.4262" stroke="url(#paint1_linear_2_2625)" stroke-width="20.5632" stroke-linecap="round" stroke-linejoin="round"/>
<path d="M118.604 104.926L126.453 97.0769" stroke="url(#paint2_linear_2_2625)" stroke-width="12.4992" stroke-linecap="round" stroke-linejoin="round"/>
<path d="M81.635 146.958L-21.1312 249.724" stroke="url(#paint3_linear_2_2625)" stroke-width="20.5632" stroke-linecap="round" stroke-linejoin="round"/>
<path d="M72.0326 96.9607L-10.648 179.641" stroke="url(#paint4_linear_2_2625)" stroke-width="16.5312" stroke-linecap="round" stroke-linejoin="round"/>
<path d="M13.9296 84.6407L23.7412 74.8292" stroke="#D25EBF" stroke-width="15.624" stroke-linecap="round" stroke-linejoin="round"/>
</g>
</g>
<path d="M83.9809 106.974C81.6083 106.974 79.4921 106.525 77.5684 105.563C75.6446 104.601 74.0415 103.191 72.759 101.331L70.6429 108.834C70.8994 109.667 71.4124 110.501 72.1819 111.335C72.9514 112.232 73.9133 113.002 75.0675 113.707C76.2218 114.413 77.5684 114.99 79.1074 115.439C80.6464 115.887 82.3136 116.08 84.2374 116.08C86.4176 116.08 88.5338 115.695 90.4575 114.926C92.3813 114.156 94.0485 113.13 95.4593 111.719C96.87 110.309 98.0243 108.641 98.8579 106.718C99.6274 104.794 100.076 102.678 100.076 100.369C100.076 98.1889 99.6915 96.201 98.922 94.3414C98.1525 92.5459 97.1265 90.9428 95.844 89.5961C94.5615 88.2495 93.0225 87.2235 91.227 86.454C89.4315 85.6845 87.4436 85.2998 85.3916 85.2998C84.7504 85.2998 83.9809 85.3639 83.019 85.4921C82.0571 85.6204 81.2235 85.8128 80.454 86.1334L81.1594 78.246H97.1265V69.1403H74.4263L72.1819 95.0468L77.9531 96.6499C78.7226 95.9445 79.7486 95.4315 80.9029 95.0468C82.0571 94.662 83.2755 94.4696 84.558 94.4696C85.4558 94.4696 86.2894 94.5979 87.123 94.8544C87.9566 95.1109 88.7261 95.4956 89.3674 96.0086C90.0086 96.5216 90.5216 97.1629 90.9064 97.9324C91.2911 98.7019 91.4835 99.5996 91.4835 100.626C91.4835 102.614 90.714 104.153 89.3033 105.307C87.8925 106.461 86.097 106.974 83.9809 106.974ZM122.816 68.2425C120.251 68.2425 118.007 68.8196 116.019 69.9098C114.031 70.9999 112.364 72.5389 111.017 74.5909C109.606 76.6429 108.58 79.1438 107.875 82.0935C107.105 85.0433 106.785 88.3778 106.785 92.097C106.785 95.8163 107.105 99.0866 107.811 102.036C108.516 104.986 109.542 107.551 110.889 109.603C112.235 111.655 113.903 113.258 115.955 114.413C117.943 115.567 120.251 116.08 122.944 116.08C125.445 116.08 127.69 115.567 129.677 114.477C131.665 113.387 133.333 111.783 134.679 109.731C136.026 107.679 137.052 105.179 137.757 102.229C138.463 99.279 138.847 96.0086 138.847 92.2894C138.847 88.506 138.463 85.1074 137.693 82.0935C136.924 79.1438 135.898 76.5788 134.487 74.5268C133.076 72.4748 131.409 70.9358 129.421 69.8456C127.433 68.8196 125.253 68.2425 122.816 68.2425ZM122.816 77.3483C124.996 77.3483 126.728 78.6949 128.138 81.2599C129.549 83.889 130.255 87.5441 130.255 92.2253C130.255 97.1629 129.485 100.882 128.074 103.319C126.664 105.756 124.932 106.974 122.88 106.974C121.854 106.974 120.892 106.718 119.995 106.14C119.097 105.627 118.263 104.73 117.622 103.511C116.917 102.357 116.339 100.818 115.955 98.9584C115.57 97.0988 115.378 94.8544 115.378 92.2894C115.378 89.7244 115.57 87.48 115.955 85.5563C116.339 83.6966 116.852 82.1576 117.558 80.9393C118.199 79.7209 119.033 78.8231 119.93 78.246C120.828 77.6689 121.79 77.3483 122.816 77.3483ZM161.955 68.2425C159.39 68.2425 157.146 68.8196 155.158 69.9098C153.17 70.9999 151.503 72.5389 150.156 74.5909C148.745 76.6429 147.719 79.1438 147.014 82.0935C146.244 85.0433 145.924 88.3778 145.924 92.097C145.924 95.8163 146.244 99.0866 146.95 102.036C147.655 104.986 148.681 107.551 150.028 109.603C151.374 111.655 153.042 113.258 155.094 114.413C157.081 115.567 159.39 116.08 162.083 116.08C164.584 116.08 166.828 115.567 168.816 114.477C170.804 113.387 172.471 111.783 173.818 109.731C175.165 107.679 176.191 105.179 176.896 102.229C177.601 99.279 177.986 96.0086 177.986 92.2894C177.986 88.506 177.601 85.1074 176.832 82.0935C176.062 79.1438 175.036 76.5788 173.626 74.5268C172.215 72.4748 170.548 70.9358 168.56 69.8456C166.572 68.8196 164.392 68.2425 161.955 68.2425ZM161.955 77.3483C164.135 77.3483 165.867 78.6949 167.277 81.2599C168.688 83.889 169.393 87.5441 169.393 92.2253C169.393 97.1629 168.624 100.882 167.213 103.319C165.802 105.756 164.071 106.974 162.019 106.974C160.993 106.974 160.031 106.718 159.133 106.14C158.236 105.627 157.402 104.73 156.761 103.511C156.055 102.357 155.478 100.818 155.094 98.9584C154.709 97.0988 154.516 94.8544 154.516 92.2894C154.516 89.7244 154.709 87.48 155.094 85.5563C155.478 83.6966 155.991 82.1576 156.697 80.9393C157.338 79.7209 158.172 78.8231 159.069 78.246C159.967 77.6689 160.929 77.3483 161.955 77.3483ZM201.094 68.2425C198.529 68.2425 196.284 68.8196 194.296 69.9098C192.309 70.9999 190.641 72.5389 189.295 74.5909C187.884 76.6429 186.858 79.1438 186.153 82.0935C185.383 85.0433 185.062 88.3778 185.062 92.097C185.062 95.8163 185.383 99.0866 186.088 102.036C186.794 104.986 187.82 107.551 189.166 109.603C190.513 111.655 192.18 113.258 194.232 114.413C196.22 115.567 198.529 116.08 201.222 116.08C203.723 116.08 205.967 115.567 207.955 114.477C209.943 113.387 211.61 111.783 212.957 109.731C214.303 107.679 215.329 105.179 216.035 102.229C216.74 99.279 217.125 96.0086 217.125 92.2894C217.125 88.506 216.74 85.1074 215.971 82.0935C215.201 79.1438 214.175 76.5788 212.764 74.5268C211.354 72.4748 209.686 70.9358 207.699 69.8456C205.711 68.8196 203.53 68.2425 201.094 68.2425ZM201.094 77.3483C203.274 77.3483 205.005 78.6949 206.416 81.2599C207.827 83.889 208.532 87.5441 208.532 92.2253C208.532 97.1629 207.763 100.882 206.352 103.319C204.941 105.756 203.21 106.974 201.158 106.974C200.132 106.974 199.17 106.718 198.272 106.14C197.374 105.627 196.541 104.73 195.9 103.511C195.194 102.357 194.617 100.818 194.232 98.9584C193.848 97.0988 193.655 94.8544 193.655 92.2894C193.655 89.7244 193.848 87.48 194.232 85.5563C194.617 83.6966 195.13 82.1576 195.835 80.9393C196.477 79.7209 197.31 78.8231 198.208 78.246C199.106 77.6689 200.068 77.3483 201.094 77.3483Z" fill="white"/>
<path d="M101.901 132.595C101.901 131.38 101.658 130.287 101.233 129.254C100.807 128.252 100.23 127.371 99.5014 126.642C98.7724 125.913 97.9219 125.366 96.9499 124.971C95.9779 124.576 94.9755 124.364 93.9427 124.364C92.7885 124.364 91.7861 124.576 90.9356 124.971C90.0851 125.366 89.5384 125.852 89.2954 126.429V124.789H85.5592V146.902H89.4169V138.792C89.6599 139.399 90.2066 139.885 91.0267 140.28C91.8469 140.675 92.8492 140.857 94.0035 140.857C95.0362 140.857 96.0082 140.675 96.9802 140.25C97.9219 139.855 98.7724 139.278 99.5014 138.549C100.23 137.82 100.807 136.969 101.233 135.937C101.658 134.934 101.901 133.81 101.901 132.595ZM98.013 132.595C98.013 133.203 97.8915 133.78 97.6789 134.296C97.4359 134.813 97.1321 135.238 96.7372 135.602C96.3424 135.967 95.8564 136.271 95.3096 136.453C94.7629 136.666 94.1554 136.757 93.4871 136.757C92.5151 136.757 91.6342 136.574 90.9052 136.18C90.1459 135.785 89.6599 135.299 89.4169 134.691V130.53C89.6599 129.953 90.1459 129.467 90.9052 129.072C91.6342 128.677 92.5151 128.464 93.4871 128.464C94.1554 128.464 94.7629 128.586 95.3096 128.768C95.8564 128.981 96.3424 129.254 96.7372 129.619C97.1321 129.983 97.4359 130.439 97.6789 130.925C97.8915 131.441 98.013 131.988 98.013 132.595ZM103.196 124.789L109.454 139.46L106.264 146.902H110.486L119.842 124.789H115.559L111.458 134.509L107.358 124.789H103.196ZM137.034 121.174L135.758 118.106C134.756 118.653 133.723 119.048 132.69 119.291C131.627 119.534 130.533 119.747 129.44 119.99C127.952 120.324 126.737 120.84 125.795 121.508C124.823 122.177 124.094 122.997 123.547 123.938C123 124.88 122.606 125.913 122.393 127.067C122.18 128.221 122.089 129.436 122.089 130.712C122.089 132.413 122.271 133.871 122.666 135.147C123.061 136.423 123.638 137.455 124.367 138.306C125.096 139.156 125.977 139.794 127.01 140.219C128.043 140.645 129.197 140.857 130.473 140.857C131.566 140.857 132.629 140.675 133.601 140.25C134.573 139.855 135.393 139.308 136.092 138.579C136.791 137.881 137.337 137.06 137.763 136.088C138.158 135.147 138.37 134.114 138.37 133.021C138.37 131.957 138.158 130.985 137.793 130.074C137.429 129.163 136.912 128.404 136.244 127.735C135.576 127.097 134.786 126.581 133.875 126.217C132.963 125.852 131.961 125.67 130.928 125.67C129.835 125.67 128.832 125.882 127.982 126.277C127.131 126.672 126.494 127.128 126.099 127.675C126.099 127.249 126.129 126.854 126.251 126.429C126.342 126.004 126.554 125.639 126.888 125.275C127.223 124.91 127.709 124.607 128.316 124.303C128.924 123.999 129.744 123.756 130.776 123.574C131.202 123.513 131.718 123.422 132.295 123.301C132.872 123.179 133.449 123.027 134.057 122.845C134.634 122.663 135.181 122.45 135.728 122.177C136.244 121.903 136.669 121.569 137.034 121.174ZM130.382 136.757C129.774 136.757 129.227 136.666 128.711 136.483C128.195 136.301 127.739 136.028 127.344 135.663C126.949 135.299 126.645 134.873 126.402 134.327C126.159 133.78 126.008 133.172 126.008 132.443C126.19 132.018 126.433 131.623 126.737 131.289C127.04 130.955 127.374 130.682 127.769 130.439C128.164 130.226 128.589 130.074 129.045 129.953C129.47 129.831 129.926 129.77 130.382 129.77C130.928 129.77 131.475 129.862 131.991 130.044C132.477 130.226 132.933 130.439 133.298 130.742C133.662 131.046 133.966 131.411 134.178 131.836C134.391 132.261 134.513 132.747 134.513 133.264C134.513 134.357 134.118 135.238 133.328 135.845C132.538 136.453 131.536 136.757 130.382 136.757ZM140.097 136.787L140.766 140.311C140.917 140.371 141.1 140.432 141.343 140.493C141.586 140.554 141.829 140.554 142.102 140.554C143.833 140.554 145.14 139.612 146.051 137.698C146.962 135.785 147.478 132.838 147.6 128.89H152.065V140.432H155.923V124.789H144.107C144.046 126.672 143.985 128.282 143.894 129.588C143.803 130.925 143.682 132.018 143.53 132.899C143.378 133.78 143.196 134.479 142.983 134.965C142.77 135.481 142.527 135.876 142.224 136.119C141.92 136.392 141.616 136.574 141.252 136.635C140.887 136.726 140.523 136.787 140.097 136.787ZM168.02 136.969C166.805 136.969 165.802 136.757 164.982 136.271C164.132 135.785 163.646 135.025 163.464 133.993H175.067C175.097 133.81 175.128 133.598 175.128 133.355C175.128 133.112 175.158 132.869 175.158 132.626C175.158 131.532 174.976 130.499 174.611 129.497C174.247 128.525 173.73 127.644 173.062 126.885C172.394 126.125 171.604 125.518 170.662 125.062C169.721 124.607 168.688 124.364 167.534 124.364C166.288 124.364 165.165 124.607 164.193 125.032C163.221 125.488 162.37 126.095 161.671 126.854C160.973 127.614 160.426 128.495 160.062 129.467C159.697 130.469 159.515 131.532 159.515 132.626C159.515 133.901 159.727 135.056 160.153 136.058C160.578 137.091 161.155 137.941 161.914 138.64C162.643 139.369 163.524 139.916 164.557 140.28C165.59 140.675 166.683 140.857 167.898 140.857C169.356 140.857 170.602 140.584 171.665 140.037C172.728 139.49 173.518 138.822 174.004 138.002L172.819 135.025C172.363 135.633 171.695 136.088 170.814 136.453C169.903 136.817 168.992 136.969 168.02 136.969ZM171.209 130.834H163.615C163.767 130.013 164.223 129.376 164.982 128.95C165.711 128.525 166.562 128.282 167.534 128.282C168.475 128.282 169.296 128.525 169.994 128.95C170.662 129.376 171.088 130.013 171.209 130.834ZM191.306 118.501L188.178 118.046C188.117 118.592 187.935 119.078 187.57 119.443C187.206 119.838 186.689 120.02 186.082 120.02C185.413 120.02 184.927 119.838 184.563 119.443C184.198 119.078 184.016 118.592 183.986 118.046L180.827 118.501C180.827 119.2 180.948 119.838 181.222 120.415C181.495 121.022 181.86 121.508 182.346 121.934C182.832 122.359 183.378 122.693 184.016 122.936C184.654 123.179 185.353 123.27 186.082 123.27C186.78 123.27 187.449 123.179 188.086 122.936C188.724 122.693 189.271 122.359 189.757 121.934C190.243 121.508 190.608 121.022 190.881 120.415C191.154 119.838 191.306 119.2 191.306 118.501ZM182.528 124.789H178.731V140.432H182.589L189.666 131.046V140.432H193.463V124.789H189.605L182.528 134.175V124.789Z" fill="white"/>
<path opacity="0.198847" fill-rule="evenodd" clip-rule="evenodd" d="M168.75 0.000610352H11.8131C5.28926 0.000610352 0.00062561 5.28925 0.00062561 11.8131V168.75L168.75 0.000610352Z" fill="white"/>
<defs>
<filter id="filter0_d_2_2625" x="-26.768" y="-24.9993" width="336.925" height="243.213" filterUnits="userSpaceOnUse" color-interpolation-filters="sRGB">
<feFlood flood-opacity="0" result="BackgroundImageFix"/>
<feColorMatrix in="SourceAlpha" type="matrix" values="0 0 0 0 0 0 0 0 0 0 0 0 0 0 0 0 0 0 127 0" result="hardAlpha"/>
<feOffset dy="2.5"/>
<feGaussianBlur stdDeviation="13.75"/>
<feColorMatrix type="matrix" values="0 0 0 0 0.56969 0 0 0 0 0.56969 0 0 0 0 0.56969 0 0 0 0.5 0"/>
<feBlend mode="normal" in2="BackgroundImageFix" result="effect1_dropShadow_2_2625"/>
<feBlend mode="normal" in="SourceGraphic" in2="effect1_dropShadow_2_2625" result="shape"/>
</filter>
<linearGradient id="paint0_linear_2_2625" x1="-9.44968" y1="60.1415" x2="-119.175" y2="163.492" gradientUnits="userSpaceOnUse">
<stop stop-color="#4B91F9"/>
<stop offset="1" stop-color="#4635F6"/>
</linearGradient>
<linearGradient id="paint1_linear_2_2625" x1="53.0856" y1="57.7693" x2="-10.3144" y2="156.332" gradientUnits="userSpaceOnUse">
<stop stop-color="#2C65FA"/>
<stop offset="1" stop-color="#21BAFE"/>
</linearGradient>
<linearGradient id="paint2_linear_2_2625" x1="126.177" y1="122.382" x2="140.901" y2="92.9167" gradientUnits="userSpaceOnUse">
<stop stop-color="#2C65FA"/>
<stop offset="1" stop-color="#21BAFE"/>
</linearGradient>
<linearGradient id="paint3_linear_2_2625" x1="48.8978" y1="29.7532" x2="-100.422" y2="175.064" gradientUnits="userSpaceOnUse">
<stop stop-color="#F54464"/>
<stop offset="1" stop-color="#F56E5A"/>
</linearGradient>
<linearGradient id="paint4_linear_2_2625" x1="4.20777" y1="270.02" x2="136.598" y2="151.087" gradientUnits="userSpaceOnUse">
<stop stop-color="#4B91F9"/>
<stop offset="1" stop-color="#4635F6"/>
</linearGradient>
</defs>
</svg>
