<svg width="283" height="189" viewBox="0 0 283 189" fill="none" xmlns="http://www.w3.org/2000/svg">
<g filter="url(#filter0_d_2_2609)">
<rect x="0.732056" y="0.000732422" width="281.925" height="188.213" rx="11.8125" fill="#3D59FF"/>
<mask id="mask0_2_2609" style="mask-type:alpha" maskUnits="userSpaceOnUse" x="0" y="0" width="283" height="189">
<rect x="0.732056" y="0.000732422" width="281.925" height="188.213" rx="11.8125" fill="white"/>
</mask>
<g mask="url(#mask0_2_2609)">
<path d="M35.8515 115.004L-67.4992 218.355" stroke="url(#paint0_linear_2_2609)" stroke-width="45.864" stroke-linecap="round" stroke-linejoin="round"/>
<path d="M-5.72156 192.192L97.0447 89.4262" stroke="url(#paint1_linear_2_2609)" stroke-width="20.5632" stroke-linecap="round" stroke-linejoin="round"/>
<path d="M118.604 104.926L126.453 97.0769" stroke="url(#paint2_linear_2_2609)" stroke-width="12.4992" stroke-linecap="round" stroke-linejoin="round"/>
<path d="M81.6351 146.958L-21.1312 249.724" stroke="url(#paint3_linear_2_2609)" stroke-width="20.5632" stroke-linecap="round" stroke-linejoin="round"/>
<path d="M72.0326 96.9607L-10.648 179.641" stroke="url(#paint4_linear_2_2609)" stroke-width="16.5312" stroke-linecap="round" stroke-linejoin="round"/>
<path d="M13.9296 84.6407L23.7411 74.8292" stroke="#D25EBF" stroke-width="15.624" stroke-linecap="round" stroke-linejoin="round"/>
</g>
</g>
<path d="M83.3397 106.974C80.6464 106.974 78.3379 106.525 76.4783 105.563C74.6187 104.601 73.0155 103.191 71.733 101.395L69.6169 108.834C69.9375 109.731 70.5147 110.629 71.3483 111.463C72.1178 112.361 73.1438 113.13 74.298 113.771C75.4523 114.477 76.7989 115.054 78.3379 115.439C79.8769 115.887 81.5442 116.08 83.3397 116.08C85.7764 116.08 87.9567 115.695 90.0087 114.861C91.9965 114.028 93.7279 112.874 95.1387 111.463C96.5494 110.052 97.7037 108.449 98.4732 106.525C99.2427 104.666 99.6274 102.678 99.6274 100.497C99.6274 98.1889 99.2427 96.201 98.5373 94.5338C97.8319 92.8665 96.9342 91.5199 95.844 90.3656C94.7539 89.2114 93.5355 88.3136 92.253 87.6724C90.9705 87.0311 89.688 86.6464 88.4697 86.3899L97.0624 75.7451V69.1403H72.1178V78.246H85.8405L77.0554 89.1473L78.4662 95.6239C78.9792 95.3674 79.6845 95.1109 80.5823 94.8544C81.48 94.5979 82.506 94.4696 83.6603 94.4696C85.9047 94.4696 87.7002 95.0468 89.0468 96.1369C90.3293 97.2911 91.0347 98.7019 91.0347 100.497C91.0347 102.485 90.3293 104.088 88.9185 105.243C87.5078 106.397 85.6482 106.974 83.3397 106.974ZM122.065 68.2425C119.5 68.2425 117.255 68.8196 115.267 69.9098C113.28 70.9999 111.612 72.5389 110.266 74.5909C108.855 76.6429 107.829 79.1438 107.124 82.0935C106.354 85.0433 106.033 88.3778 106.033 92.097C106.033 95.8163 106.354 99.0866 107.059 102.036C107.765 104.986 108.791 107.551 110.137 109.603C111.484 111.655 113.151 113.258 115.203 114.413C117.191 115.567 119.5 116.08 122.193 116.08C124.694 116.08 126.938 115.567 128.926 114.477C130.914 113.387 132.581 111.783 133.928 109.731C135.274 107.679 136.3 105.179 137.006 102.229C137.711 99.279 138.096 96.0086 138.096 92.2894C138.096 88.506 137.711 85.1074 136.942 82.0935C136.172 79.1438 135.146 76.5788 133.735 74.5268C132.325 72.4748 130.657 70.9358 128.67 69.8456C126.682 68.8196 124.501 68.2425 122.065 68.2425ZM122.065 77.3483C124.245 77.3483 125.976 78.6949 127.387 81.2599C128.798 83.889 129.503 87.5441 129.503 92.2253C129.503 97.1629 128.734 100.882 127.323 103.319C125.912 105.756 124.181 106.974 122.129 106.974C121.103 106.974 120.141 106.718 119.243 106.14C118.345 105.627 117.512 104.73 116.871 103.511C116.165 102.357 115.588 100.818 115.203 98.9584C114.819 97.0988 114.626 94.8544 114.626 92.2894C114.626 89.7244 114.819 87.48 115.203 85.5563C115.588 83.6966 116.101 82.1576 116.806 80.9393C117.448 79.7209 118.281 78.8231 119.179 78.246C120.077 77.6689 121.039 77.3483 122.065 77.3483ZM161.203 68.2425C158.638 68.2425 156.394 68.8196 154.406 69.9098C152.418 70.9999 150.751 72.5389 149.404 74.5909C147.994 76.6429 146.968 79.1438 146.262 82.0935C145.493 85.0433 145.172 88.3778 145.172 92.097C145.172 95.8163 145.493 99.0866 146.198 102.036C146.904 104.986 147.93 107.551 149.276 109.603C150.623 111.655 152.29 113.258 154.342 114.413C156.33 115.567 158.638 116.08 161.332 116.08C163.833 116.08 166.077 115.567 168.065 114.477C170.053 113.387 171.72 111.783 173.067 109.731C174.413 107.679 175.439 105.179 176.145 102.229C176.85 99.279 177.235 96.0086 177.235 92.2894C177.235 88.506 176.85 85.1074 176.08 82.0935C175.311 79.1438 174.285 76.5788 172.874 74.5268C171.463 72.4748 169.796 70.9358 167.808 69.8456C165.82 68.8196 163.64 68.2425 161.203 68.2425ZM161.203 77.3483C163.384 77.3483 165.115 78.6949 166.526 81.2599C167.937 83.889 168.642 87.5441 168.642 92.2253C168.642 97.1629 167.872 100.882 166.462 103.319C165.051 105.756 163.32 106.974 161.268 106.974C160.242 106.974 159.28 106.718 158.382 106.14C157.484 105.627 156.651 104.73 156.009 103.511C155.304 102.357 154.727 100.818 154.342 98.9584C153.957 97.0988 153.765 94.8544 153.765 92.2894C153.765 89.7244 153.957 87.48 154.342 85.5563C154.727 83.6966 155.24 82.1576 155.945 80.9393C156.586 79.7209 157.42 78.8231 158.318 78.246C159.216 77.6689 160.177 77.3483 161.203 77.3483ZM200.342 68.2425C197.777 68.2425 195.533 68.8196 193.545 69.9098C191.557 70.9999 189.89 72.5389 188.543 74.5909C187.132 76.6429 186.106 79.1438 185.401 82.0935C184.632 85.0433 184.311 88.3778 184.311 92.097C184.311 95.8163 184.632 99.0866 185.337 102.036C186.042 104.986 187.068 107.551 188.415 109.603C189.762 111.655 191.429 113.258 193.481 114.413C195.469 115.567 197.777 116.08 200.47 116.08C202.971 116.08 205.216 115.567 207.204 114.477C209.191 113.387 210.859 111.783 212.205 109.731C213.552 107.679 214.578 105.179 215.283 102.229C215.989 99.279 216.373 96.0086 216.373 92.2894C216.373 88.506 215.989 85.1074 215.219 82.0935C214.45 79.1438 213.424 76.5788 212.013 74.5268C210.602 72.4748 208.935 70.9358 206.947 69.8456C204.959 68.8196 202.779 68.2425 200.342 68.2425ZM200.342 77.3483C202.522 77.3483 204.254 78.6949 205.665 81.2599C207.075 83.889 207.781 87.5441 207.781 92.2253C207.781 97.1629 207.011 100.882 205.6 103.319C204.19 105.756 202.458 106.974 200.406 106.974C199.38 106.974 198.418 106.718 197.521 106.14C196.623 105.627 195.789 104.73 195.148 103.511C194.443 102.357 193.866 100.818 193.481 98.9584C193.096 97.0988 192.904 94.8544 192.904 92.2894C192.904 89.7244 193.096 87.48 193.481 85.5563C193.866 83.6966 194.379 82.1576 195.084 80.9393C195.725 79.7209 196.559 78.8231 197.457 78.246C198.354 77.6689 199.316 77.3483 200.342 77.3483Z" fill="white"/>
<path d="M101.901 132.595C101.901 131.38 101.658 130.287 101.233 129.254C100.808 128.252 100.23 127.371 99.5015 126.642C98.7725 125.913 97.922 125.366 96.95 124.971C95.978 124.576 94.9756 124.364 93.9429 124.364C92.7886 124.364 91.7862 124.576 90.9357 124.971C90.0852 125.366 89.5385 125.852 89.2955 126.429V124.789H85.5594V146.902H89.417V138.792C89.66 139.399 90.2067 139.885 91.0269 140.28C91.847 140.675 92.8494 140.857 94.0036 140.857C95.0364 140.857 96.0084 140.675 96.9804 140.25C97.922 139.855 98.7725 139.278 99.5015 138.549C100.23 137.82 100.808 136.969 101.233 135.937C101.658 134.934 101.901 133.81 101.901 132.595ZM98.0131 132.595C98.0131 133.203 97.8916 133.78 97.679 134.296C97.436 134.813 97.1322 135.238 96.7374 135.602C96.3425 135.967 95.8565 136.271 95.3097 136.453C94.763 136.666 94.1555 136.757 93.4872 136.757C92.5152 136.757 91.6344 136.574 90.9054 136.18C90.146 135.785 89.66 135.299 89.417 134.691V130.53C89.66 129.953 90.146 129.467 90.9054 129.072C91.6344 128.677 92.5152 128.464 93.4872 128.464C94.1555 128.464 94.763 128.586 95.3097 128.768C95.8565 128.981 96.3425 129.254 96.7374 129.619C97.1322 129.983 97.436 130.439 97.679 130.925C97.8916 131.441 98.0131 131.988 98.0131 132.595ZM103.197 124.789L109.454 139.46L106.264 146.902H110.487L119.842 124.789H115.559L111.459 134.509L107.358 124.789H103.197ZM137.034 121.174L135.758 118.106C134.756 118.653 133.723 119.048 132.69 119.291C131.627 119.534 130.534 119.747 129.44 119.99C127.952 120.324 126.737 120.84 125.795 121.508C124.823 122.177 124.094 122.997 123.547 123.938C123.001 124.88 122.606 125.913 122.393 127.067C122.18 128.221 122.089 129.436 122.089 130.712C122.089 132.413 122.272 133.871 122.666 135.147C123.061 136.423 123.638 137.455 124.367 138.306C125.096 139.156 125.977 139.794 127.01 140.219C128.043 140.645 129.197 140.857 130.473 140.857C131.566 140.857 132.629 140.675 133.601 140.25C134.573 139.855 135.394 139.308 136.092 138.579C136.791 137.881 137.338 137.06 137.763 136.088C138.158 135.147 138.37 134.114 138.37 133.021C138.37 131.957 138.158 130.985 137.793 130.074C137.429 129.163 136.912 128.404 136.244 127.735C135.576 127.097 134.786 126.581 133.875 126.217C132.964 125.852 131.961 125.67 130.928 125.67C129.835 125.67 128.833 125.882 127.982 126.277C127.132 126.672 126.494 127.128 126.099 127.675C126.099 127.249 126.129 126.854 126.251 126.429C126.342 126.004 126.554 125.639 126.889 125.275C127.223 124.91 127.709 124.607 128.316 124.303C128.924 123.999 129.744 123.756 130.777 123.574C131.202 123.513 131.718 123.422 132.295 123.301C132.872 123.179 133.45 123.027 134.057 122.845C134.634 122.663 135.181 122.45 135.728 122.177C136.244 121.903 136.669 121.569 137.034 121.174ZM130.382 136.757C129.774 136.757 129.227 136.666 128.711 136.483C128.195 136.301 127.739 136.028 127.344 135.663C126.949 135.299 126.646 134.873 126.403 134.327C126.16 133.78 126.008 133.172 126.008 132.443C126.19 132.018 126.433 131.623 126.737 131.289C127.04 130.955 127.375 130.682 127.769 130.439C128.164 130.226 128.59 130.074 129.045 129.953C129.47 129.831 129.926 129.77 130.382 129.77C130.928 129.77 131.475 129.862 131.992 130.044C132.478 130.226 132.933 130.439 133.298 130.742C133.662 131.046 133.966 131.411 134.179 131.836C134.391 132.261 134.513 132.747 134.513 133.264C134.513 134.357 134.118 135.238 133.328 135.845C132.538 136.453 131.536 136.757 130.382 136.757ZM140.097 136.787L140.766 140.311C140.918 140.371 141.1 140.432 141.343 140.493C141.586 140.554 141.829 140.554 142.102 140.554C143.834 140.554 145.14 139.612 146.051 137.698C146.962 135.785 147.479 132.838 147.6 128.89H152.065V140.432H155.923V124.789H144.107C144.046 126.672 143.985 128.282 143.894 129.588C143.803 130.925 143.682 132.018 143.53 132.899C143.378 133.78 143.196 134.479 142.983 134.965C142.77 135.481 142.527 135.876 142.224 136.119C141.92 136.392 141.616 136.574 141.252 136.635C140.887 136.726 140.523 136.787 140.097 136.787ZM168.02 136.969C166.805 136.969 165.803 136.757 164.982 136.271C164.132 135.785 163.646 135.025 163.464 133.993H175.067C175.097 133.81 175.128 133.598 175.128 133.355C175.128 133.112 175.158 132.869 175.158 132.626C175.158 131.532 174.976 130.499 174.611 129.497C174.247 128.525 173.73 127.644 173.062 126.885C172.394 126.125 171.604 125.518 170.663 125.062C169.721 124.607 168.688 124.364 167.534 124.364C166.289 124.364 165.165 124.607 164.193 125.032C163.221 125.488 162.37 126.095 161.672 126.854C160.973 127.614 160.426 128.495 160.062 129.467C159.697 130.469 159.515 131.532 159.515 132.626C159.515 133.901 159.728 135.056 160.153 136.058C160.578 137.091 161.155 137.941 161.915 138.64C162.644 139.369 163.524 139.916 164.557 140.28C165.59 140.675 166.683 140.857 167.898 140.857C169.356 140.857 170.602 140.584 171.665 140.037C172.728 139.49 173.518 138.822 174.004 138.002L172.819 135.025C172.364 135.633 171.695 136.088 170.814 136.453C169.903 136.817 168.992 136.969 168.02 136.969ZM171.209 130.834H163.616C163.767 130.013 164.223 129.376 164.982 128.95C165.711 128.525 166.562 128.282 167.534 128.282C168.476 128.282 169.296 128.525 169.994 128.95C170.663 129.376 171.088 130.013 171.209 130.834ZM191.306 118.501L188.178 118.046C188.117 118.592 187.935 119.078 187.57 119.443C187.206 119.838 186.689 120.02 186.082 120.02C185.414 120.02 184.928 119.838 184.563 119.443C184.199 119.078 184.016 118.592 183.986 118.046L180.827 118.501C180.827 119.2 180.948 119.838 181.222 120.415C181.495 121.022 181.86 121.508 182.346 121.934C182.832 122.359 183.378 122.693 184.016 122.936C184.654 123.179 185.353 123.27 186.082 123.27C186.78 123.27 187.449 123.179 188.087 122.936C188.724 122.693 189.271 122.359 189.757 121.934C190.243 121.508 190.608 121.022 190.881 120.415C191.154 119.838 191.306 119.2 191.306 118.501ZM182.528 124.789H178.731V140.432H182.589L189.666 131.046V140.432H193.463V124.789H189.605L182.528 134.175V124.789Z" fill="white"/>
<path opacity="0.198847" fill-rule="evenodd" clip-rule="evenodd" d="M168.75 0.000610352H11.8131C5.28925 0.000610352 0.000610352 5.28925 0.000610352 11.8131V168.75L168.75 0.000610352Z" fill="white"/>
<defs>
<filter id="filter0_d_2_2609" x="-26.7679" y="-24.9993" width="336.925" height="243.213" filterUnits="userSpaceOnUse" color-interpolation-filters="sRGB">
<feFlood flood-opacity="0" result="BackgroundImageFix"/>
<feColorMatrix in="SourceAlpha" type="matrix" values="0 0 0 0 0 0 0 0 0 0 0 0 0 0 0 0 0 0 127 0" result="hardAlpha"/>
<feOffset dy="2.5"/>
<feGaussianBlur stdDeviation="13.75"/>
<feColorMatrix type="matrix" values="0 0 0 0 0.56969 0 0 0 0 0.56969 0 0 0 0 0.56969 0 0 0 0.5 0"/>
<feBlend mode="normal" in2="BackgroundImageFix" result="effect1_dropShadow_2_2609"/>
<feBlend mode="normal" in="SourceGraphic" in2="effect1_dropShadow_2_2609" result="shape"/>
</filter>
<linearGradient id="paint0_linear_2_2609" x1="-9.44971" y1="60.1415" x2="-119.175" y2="163.492" gradientUnits="userSpaceOnUse">
<stop stop-color="#4B91F9"/>
<stop offset="1" stop-color="#4635F6"/>
</linearGradient>
<linearGradient id="paint1_linear_2_2609" x1="53.0856" y1="57.7693" x2="-10.3145" y2="156.332" gradientUnits="userSpaceOnUse">
<stop stop-color="#2C65FA"/>
<stop offset="1" stop-color="#21BAFE"/>
</linearGradient>
<linearGradient id="paint2_linear_2_2609" x1="126.177" y1="122.382" x2="140.901" y2="92.9167" gradientUnits="userSpaceOnUse">
<stop stop-color="#2C65FA"/>
<stop offset="1" stop-color="#21BAFE"/>
</linearGradient>
<linearGradient id="paint3_linear_2_2609" x1="48.8978" y1="29.7532" x2="-100.422" y2="175.064" gradientUnits="userSpaceOnUse">
<stop stop-color="#F54464"/>
<stop offset="1" stop-color="#F56E5A"/>
</linearGradient>
<linearGradient id="paint4_linear_2_2609" x1="4.20774" y1="270.02" x2="136.598" y2="151.087" gradientUnits="userSpaceOnUse">
<stop stop-color="#4B91F9"/>
<stop offset="1" stop-color="#4635F6"/>
</linearGradient>
</defs>
</svg>
