<svg width="32" height="28" fill="none" xmlns="http://www.w3.org/2000/svg"><path fill-rule="evenodd" clip-rule="evenodd" d="M17.338 13.362H31.46l-1.962-3.437H19.3l-1.96 3.437zM22.83 14.737l1.962 3.436h4.707l1.962-3.436h-8.63zM14.985 14.737H.863l1.961 3.436h10.2l1.96-3.436zM7.532 9.926H2.824l-1.96 3.436h8.629L7.532 9.926zM24.007 8.551l2.354-4.124L24.399.991l-4.315 7.56h3.923zM16.162 15.424L9.1 27.796h3.922l5.1-8.935-1.962-3.437zM8.316 19.548l-2.353 4.124 1.961 3.436 4.315-7.56H8.316zM14.985 13.362L7.925.99 5.962 4.427l5.1 8.935h3.922zM16.946 23.672l2.354 4.123h3.923l-4.315-7.56-1.962 3.437zM17.338 14.737L24.4 27.108l1.961-3.436-5.1-8.935h-3.922zM23.222.303H19.3L16.16 5.802 13.024.303H9.101l7.06 12.372L23.223.303z" fill="#fff"/></svg>