<svg width="920" height="870" viewBox="0 0 921 873" fill="none" xmlns="http://www.w3.org/2000/svg"><path fill-rule="evenodd" clip-rule="evenodd" d="M332.35 435.65c19.523 19.523 19.523 51.177 0 70.7l-247 247c-19.523 19.523-51.177 19.523-70.7 0-19.523-19.523-19.523-51.177 0-70.7l247-247c19.523-19.523 51.177-19.523 70.7 0z" fill="url(#paint0_linear)"/><path fill-rule="evenodd" clip-rule="evenodd" d="M887.978 66.022c43.066 43.066 43.066 112.89 0 155.956l-606 606c-43.066 43.066-112.89 43.066-155.955 0-43.066-43.066-43.066-112.89 0-155.956l605.999-606c43.066-43.065 112.89-43.065 155.956 0z" fill="url(#paint1_linear)"/><path fill-rule="evenodd" clip-rule="evenodd" d="M638.478 32.523c43.065 43.065 43.065 112.889 0 155.955l-312.5 312.5c-43.066 43.065-112.89 43.065-155.955 0-43.066-43.066-43.066-112.89 0-155.955l312.5-312.5c43.065-43.066 112.889-43.066 155.955 0z" fill="url(#paint2_linear)"/><path fill-rule="evenodd" clip-rule="evenodd" d="M802.35 292.65c19.523 19.523 19.523 51.177 0 70.7l-379 379c-19.523 19.523-51.177 19.523-70.7 0-19.523-19.523-19.523-51.177 0-70.7l379-379c19.523-19.523 51.177-19.523 70.7 0z" fill="url(#paint3_linear)"/><path fill-rule="evenodd" clip-rule="evenodd" d="M771.047 234.953c15.49 15.49 15.49 40.604 0 56.094l-271 271c-15.49 15.49-40.604 15.49-56.094 0-15.49-15.49-15.49-40.604 0-56.094l271-271c15.49-15.49 40.604-15.49 56.094 0z" fill="url(#paint4_linear)"/><path fill-rule="evenodd" clip-rule="evenodd" d="M434.607 302.393c5.857 5.858 5.857 15.356 0 21.214l-110 110c-5.858 5.857-15.356 5.857-21.214 0-5.857-5.858-5.857-15.356 0-21.214l110-110c5.858-5.857 15.356-5.857 21.214 0z" fill="url(#paint5_linear)"/><g filter="url(#filter0_d)"><circle cx="250" cy="427" r="65" fill="#8C4088"/></g><circle cx="250" cy="421" r="76" fill="#C65CC0"/><path fill-rule="evenodd" clip-rule="evenodd" d="M254.068 419.061h42.93l-5.962-10.448h-31.005l-5.963 10.448zM270.765 423.24l5.963 10.447h14.309L297 423.24h-26.235zM246.914 423.24h-42.93l5.962 10.447h31.005l5.963-10.447zM224.256 408.614h-14.31l-5.962 10.447h26.235l-5.963-10.447zM274.341 404.435l7.155-12.537-5.962-10.446-13.117 22.983h11.924zM250.491 425.329l-21.465 37.61h11.925l15.502-27.163-5.962-10.447zM226.642 437.865l-7.155 12.537 5.962 10.447 13.118-22.984h-11.925zM246.914 419.061l-21.465-37.61-5.962 10.447 15.502 27.163h11.925zM252.877 450.402l7.155 12.536h11.925l-13.117-22.984-5.963 10.448zM254.068 423.24l21.465 37.609 5.963-10.447-15.503-27.162h-11.925zM271.956 379.362h-11.925l-9.54 16.715-9.54-16.715h-11.925l21.465 37.61 21.465-37.61z" fill="#fff"/><g filter="url(#filter1_d)"><circle cx="322.634" cy="667.876" r="65" transform="rotate(-15 322.634 667.876)" fill="#8C4088"/></g><circle cx="321.081" cy="662.081" r="76" transform="rotate(-15 321.081 662.081)" fill="#C65CC0"/><path fill-rule="evenodd" clip-rule="evenodd" d="M324.508 659.155l41.467-11.111-8.463-8.549-29.948 8.025-3.056 11.635zM341.718 658.87l8.463 8.548 13.822-3.704 3.056-11.634-25.341 6.79zM318.679 665.043l-41.467 11.111 8.463 8.548 29.949-8.025 3.055-11.634zM293.008 656.779l-13.822 3.704-3.055 11.635 25.341-6.791-8.464-8.548zM340.305 639.78l3.667-13.961-8.463-8.548-6.722 25.596 11.518-3.087zM322.675 666.135l-10.999 41.884 11.518-3.087 7.945-30.249-8.464-8.548zM302.883 684.417l-3.666 13.961 8.463 8.549 6.722-25.596-11.519 3.086zM317.598 661.006l-30.468-30.772-3.055 11.634 22.004 22.225 11.519-3.087zM331.469 689.736l10.156 10.258 11.519-3.087-18.619-18.806-3.056 11.635zM325.59 663.191l30.467 30.773 3.056-11.635-22.005-22.224-11.518 3.086zM331.512 616.179l-11.519 3.086-4.889 18.615-13.541-13.677-11.518 3.087 30.467 30.772 11-41.883z" fill="#fff"/><g filter="url(#filter2_d)"><circle cx="210.375" cy="748.876" r="65" transform="rotate(15 210.375 748.876)" fill="#8C4088"/></g><circle cx="211.928" cy="743.081" r="76" transform="rotate(15 211.928 743.081)" fill="#C65CC0"/><path fill-rule="evenodd" clip-rule="evenodd" d="M216.359 742.26l41.467 11.111-3.055-11.634-29.949-8.025-8.463 8.548zM231.406 750.618l3.055 11.635 13.822 3.704 8.464-8.549-25.341-6.79zM208.367 744.445L166.9 733.334l3.055 11.635 29.949 8.024 8.463-8.548zM190.267 724.453l-13.822-3.703-8.464 8.548 25.341 6.79-3.055-11.635zM239.727 733.38l10.156-10.258-3.056-11.633-18.619 18.805 11.519 3.086zM211.281 747.389l-30.467 30.773 11.518 3.086 22.005-22.224-3.056-11.635zM185 753.326l-10.156 10.257 3.055 11.635 18.62-18.806L185 753.326zM209.449 740.409l-11-41.884-8.463 8.548 7.944 30.249 11.519 3.087zM207.097 772.225l3.666 13.961 11.519 3.087-6.722-25.596-8.463 8.548zM215.277 746.297l11 41.883 8.463-8.548-7.944-30.249-11.519-3.086zM243.912 708.544l-11.518-3.086-13.542 13.676-4.888-18.615-11.519-3.086 11 41.884 30.467-30.773z" fill="#fff"/><defs><linearGradient id="paint0_linear" x1="188.734" y1="339.883" x2="-73.5" y2="586.883" gradientUnits="userSpaceOnUse"><stop stop-color="#30CDFC"/><stop offset="1" stop-color="#2F96F9"/></linearGradient><linearGradient id="paint1_linear" x1="544.375" y1="-177.687" x2="-99" y2="428.313" gradientUnits="userSpaceOnUse"><stop stop-color="#735FF3"/><stop offset="1" stop-color="#5272F5"/></linearGradient><linearGradient id="paint2_linear" x1="588.375" y1="-504.688" x2="-55" y2="101.312" gradientUnits="userSpaceOnUse"><stop stop-color="#30CDFC"/><stop offset="1" stop-color="#30C9FB"/></linearGradient><linearGradient id="paint3_linear" x1="600.875" y1="126.813" x2="198.5" y2="505.813" gradientUnits="userSpaceOnUse"><stop stop-color="#30CDFC"/><stop offset="1" stop-color="#2F96F9"/></linearGradient><linearGradient id="paint4_linear" x1="624.214" y1="119.143" x2="336.5" y2="390.143" gradientUnits="userSpaceOnUse"><stop stop-color="#FA5963"/><stop offset="1" stop-color="#FC6D5D"/></linearGradient><linearGradient id="paint5_linear" x1="375.784" y1="254.608" x2="259" y2="364.608" gradientUnits="userSpaceOnUse"><stop stop-color="#30CDFC"/><stop offset="1" stop-color="#2F96F9"/></linearGradient><filter id="filter0_d" x="145" y="326" width="210" height="210" filterUnits="userSpaceOnUse" color-interpolation-filters="sRGB"><feFlood flood-opacity="0" result="BackgroundImageFix"/><feColorMatrix in="SourceAlpha" values="0 0 0 0 0 0 0 0 0 0 0 0 0 0 0 0 0 0 127 0"/><feOffset dy="4"/><feGaussianBlur stdDeviation="20"/><feColorMatrix values="0 0 0 0 0.7625 0 0 0 0 0.0254167 0 0 0 0 0.720778 0 0 0 1 0"/><feBlend in2="BackgroundImageFix" result="effect1_dropShadow"/><feBlend in="SourceGraphic" in2="effect1_dropShadow" result="shape"/></filter><filter id="filter1_d" x="203.025" y="552.268" width="239.217" height="239.217" filterUnits="userSpaceOnUse" color-interpolation-filters="sRGB"><feFlood flood-opacity="0" result="BackgroundImageFix"/><feColorMatrix in="SourceAlpha" values="0 0 0 0 0 0 0 0 0 0 0 0 0 0 0 0 0 0 127 0"/><feOffset dy="4"/><feGaussianBlur stdDeviation="20"/><feColorMatrix values="0 0 0 0 0.7625 0 0 0 0 0.0254167 0 0 0 0 0.720778 0 0 0 1 0"/><feBlend in2="BackgroundImageFix" result="effect1_dropShadow"/><feBlend in="SourceGraphic" in2="effect1_dropShadow" result="shape"/></filter><filter id="filter2_d" x="90.766" y="633.268" width="239.217" height="239.217" filterUnits="userSpaceOnUse" color-interpolation-filters="sRGB"><feFlood flood-opacity="0" result="BackgroundImageFix"/><feColorMatrix in="SourceAlpha" values="0 0 0 0 0 0 0 0 0 0 0 0 0 0 0 0 0 0 127 0"/><feOffset dy="4"/><feGaussianBlur stdDeviation="20"/><feColorMatrix values="0 0 0 0 0.7625 0 0 0 0 0.0254167 0 0 0 0 0.720778 0 0 0 1 0"/><feBlend in2="BackgroundImageFix" result="effect1_dropShadow"/><feBlend in="SourceGraphic" in2="effect1_dropShadow" result="shape"/></filter></defs></svg>