<svg width="920" height="870" viewBox="0 0 921 873" fill="none" xmlns="http://www.w3.org/2000/svg">
<path fill-rule="evenodd" clip-rule="evenodd" d="M332.35 435.65C351.873 455.173 351.873 486.827 332.35 506.35L85.3499 753.35C65.8267 772.873 34.1734 772.873 14.6502 753.35C-4.87298 733.827 -4.87298 702.173 14.6502 682.65L261.65 435.65C281.173 416.127 312.827 416.127 332.35 435.65Z" fill="url(#paint0_linear)"/>
<path fill-rule="evenodd" clip-rule="evenodd" d="M887.978 66.0225C931.044 109.088 931.044 178.912 887.978 221.978L281.978 827.978C238.912 871.044 169.088 871.044 126.023 827.978C82.9567 784.912 82.9567 715.088 126.023 672.022L732.022 66.0225C775.088 22.9567 844.912 22.9567 887.978 66.0225Z" fill="url(#paint1_linear)"/>
<path fill-rule="evenodd" clip-rule="evenodd" d="M638.478 32.5225C681.543 75.5883 681.543 145.412 638.478 188.478L325.978 500.978C282.912 544.043 213.088 544.043 170.023 500.978C126.957 457.912 126.957 388.088 170.023 345.023L482.523 32.5225C525.588 -10.5433 595.412 -10.5433 638.478 32.5225Z" fill="url(#paint2_linear)"/>
<path fill-rule="evenodd" clip-rule="evenodd" d="M802.35 292.65C821.873 312.173 821.873 343.827 802.35 363.35L423.35 742.35C403.827 761.873 372.173 761.873 352.65 742.35C333.127 722.827 333.127 691.173 352.65 671.65L731.65 292.65C751.173 273.127 782.827 273.127 802.35 292.65Z" fill="url(#paint3_linear)"/>
<path fill-rule="evenodd" clip-rule="evenodd" d="M771.047 234.953C786.537 250.443 786.537 275.557 771.047 291.047L500.047 562.047C484.557 577.537 459.443 577.537 443.953 562.047C428.463 546.557 428.463 521.443 443.953 505.953L714.953 234.953C730.443 219.463 755.557 219.463 771.047 234.953Z" fill="url(#paint4_linear)"/>
<path fill-rule="evenodd" clip-rule="evenodd" d="M434.607 302.393C440.464 308.251 440.464 317.749 434.607 323.607L324.607 433.607C318.749 439.464 309.251 439.464 303.393 433.607C297.536 427.749 297.536 418.251 303.393 412.393L413.393 302.393C419.251 296.536 428.749 296.536 434.607 302.393Z" fill="url(#paint5_linear)"/>
<g filter="url(#filter0_d)">
<circle cx="250" cy="427" r="65" fill="#8C4088"/>
</g>
<circle cx="250" cy="421" r="76" fill="#C65CC0"/>
<path fill-rule="evenodd" clip-rule="evenodd" d="M254.068 419.061H296.998L291.036 408.613H260.031L254.068 419.061Z" fill="white"/>
<path fill-rule="evenodd" clip-rule="evenodd" d="M270.765 423.24L276.728 433.687H291.037L297 423.24H270.765Z" fill="white"/>
<path fill-rule="evenodd" clip-rule="evenodd" d="M246.914 423.24H203.984L209.946 433.687H240.951L246.914 423.24Z" fill="white"/>
<path fill-rule="evenodd" clip-rule="evenodd" d="M224.256 408.614H209.946L203.984 419.061H230.219L224.256 408.614Z" fill="white"/>
<path fill-rule="evenodd" clip-rule="evenodd" d="M274.341 404.435L281.496 391.898L275.534 381.452L262.417 404.435H274.341Z" fill="white"/>
<path fill-rule="evenodd" clip-rule="evenodd" d="M250.491 425.329L229.026 462.939H240.951L256.453 435.776L250.491 425.329Z" fill="white"/>
<path fill-rule="evenodd" clip-rule="evenodd" d="M226.642 437.865L219.487 450.402L225.449 460.849L238.567 437.865H226.642Z" fill="white"/>
<path fill-rule="evenodd" clip-rule="evenodd" d="M246.914 419.061L225.449 381.451L219.487 391.898L234.989 419.061H246.914Z" fill="white"/>
<path fill-rule="evenodd" clip-rule="evenodd" d="M252.877 450.402L260.032 462.938H271.957L258.84 439.954L252.877 450.402Z" fill="white"/>
<path fill-rule="evenodd" clip-rule="evenodd" d="M254.068 423.24L275.533 460.849L281.496 450.402L265.993 423.24H254.068Z" fill="white"/>
<path fill-rule="evenodd" clip-rule="evenodd" d="M271.956 379.362H260.031L250.491 396.077L240.951 379.362H229.026L250.491 416.972L271.956 379.362Z" fill="white"/>
<g filter="url(#filter1_d)">
<circle cx="322.634" cy="667.876" r="65" transform="rotate(-15 322.634 667.876)" fill="#8C4088"/>
</g>
<circle cx="321.081" cy="662.081" r="76" transform="rotate(-15 321.081 662.081)" fill="#C65CC0"/>
<path fill-rule="evenodd" clip-rule="evenodd" d="M324.508 659.155L365.975 648.044L357.512 639.495L327.564 647.52L324.508 659.155Z" fill="white"/>
<path fill-rule="evenodd" clip-rule="evenodd" d="M341.718 658.87L350.181 667.418L364.003 663.714L367.059 652.08L341.718 658.87Z" fill="white"/>
<path fill-rule="evenodd" clip-rule="evenodd" d="M318.679 665.043L277.212 676.154L285.675 684.702L315.624 676.677L318.679 665.043Z" fill="white"/>
<path fill-rule="evenodd" clip-rule="evenodd" d="M293.008 656.779L279.186 660.483L276.131 672.118L301.472 665.327L293.008 656.779Z" fill="white"/>
<path fill-rule="evenodd" clip-rule="evenodd" d="M340.305 639.78L343.972 625.819L335.509 617.271L328.787 642.867L340.305 639.78Z" fill="white"/>
<path fill-rule="evenodd" clip-rule="evenodd" d="M322.675 666.135L311.676 708.019L323.194 704.932L331.139 674.683L322.675 666.135Z" fill="white"/>
<path fill-rule="evenodd" clip-rule="evenodd" d="M302.883 684.417L299.217 698.378L307.68 706.927L314.402 681.331L302.883 684.417Z" fill="white"/>
<path fill-rule="evenodd" clip-rule="evenodd" d="M317.598 661.006L287.13 630.234L284.075 641.868L306.079 664.093L317.598 661.006Z" fill="white"/>
<path fill-rule="evenodd" clip-rule="evenodd" d="M331.469 689.736L341.625 699.994L353.144 696.907L334.525 678.101L331.469 689.736Z" fill="white"/>
<path fill-rule="evenodd" clip-rule="evenodd" d="M325.59 663.191L356.057 693.964L359.113 682.329L337.108 660.105L325.59 663.191Z" fill="white"/>
<path fill-rule="evenodd" clip-rule="evenodd" d="M331.512 616.179L319.993 619.265L315.104 637.88L301.563 624.203L290.045 627.29L320.512 658.062L331.512 616.179Z" fill="white"/>
<g filter="url(#filter2_d)">
<circle cx="210.375" cy="748.876" r="65" transform="rotate(15 210.375 748.876)" fill="#8C4088"/>
</g>
<circle cx="211.928" cy="743.081" r="76" transform="rotate(15 211.928 743.081)" fill="#C65CC0"/>
<path fill-rule="evenodd" clip-rule="evenodd" d="M216.359 742.26L257.826 753.371L254.771 741.737L224.822 733.712L216.359 742.26Z" fill="white"/>
<path fill-rule="evenodd" clip-rule="evenodd" d="M231.406 750.618L234.461 762.253L248.283 765.957L256.747 757.408L231.406 750.618Z" fill="white"/>
<path fill-rule="evenodd" clip-rule="evenodd" d="M208.367 744.445L166.9 733.334L169.955 744.969L199.904 752.993L208.367 744.445Z" fill="white"/>
<path fill-rule="evenodd" clip-rule="evenodd" d="M190.267 724.453L176.445 720.75L167.981 729.298L193.322 736.088L190.267 724.453Z" fill="white"/>
<path fill-rule="evenodd" clip-rule="evenodd" d="M239.727 733.38L249.883 723.122L246.827 711.489L228.208 730.294L239.727 733.38Z" fill="white"/>
<path fill-rule="evenodd" clip-rule="evenodd" d="M211.281 747.389L180.814 778.162L192.332 781.248L214.337 759.024L211.281 747.389Z" fill="white"/>
<path fill-rule="evenodd" clip-rule="evenodd" d="M185 753.326L174.844 763.583L177.899 775.218L196.519 756.412L185 753.326Z" fill="white"/>
<path fill-rule="evenodd" clip-rule="evenodd" d="M209.449 740.409L198.449 698.525L189.986 707.073L197.93 737.322L209.449 740.409Z" fill="white"/>
<path fill-rule="evenodd" clip-rule="evenodd" d="M207.097 772.225L210.763 786.186L222.282 789.273L215.56 763.677L207.097 772.225Z" fill="white"/>
<path fill-rule="evenodd" clip-rule="evenodd" d="M215.277 746.297L226.277 788.18L234.74 779.632L226.796 749.383L215.277 746.297Z" fill="white"/>
<path fill-rule="evenodd" clip-rule="evenodd" d="M243.912 708.544L232.394 705.458L218.852 719.134L213.964 700.519L202.445 697.433L213.445 739.317L243.912 708.544Z" fill="white"/>
<defs>
<filter id="filter0_d" x="145" y="326" width="210" height="210" filterUnits="userSpaceOnUse" color-interpolation-filters="sRGB">
<feFlood flood-opacity="0" result="BackgroundImageFix"/>
<feColorMatrix in="SourceAlpha" type="matrix" values="0 0 0 0 0 0 0 0 0 0 0 0 0 0 0 0 0 0 127 0"/>
<feOffset dy="4"/>
<feGaussianBlur stdDeviation="20"/>
<feColorMatrix type="matrix" values="0 0 0 0 0.7625 0 0 0 0 0.0254167 0 0 0 0 0.720778 0 0 0 1 0"/>
<feBlend mode="normal" in2="BackgroundImageFix" result="effect1_dropShadow"/>
<feBlend mode="normal" in="SourceGraphic" in2="effect1_dropShadow" result="shape"/>
</filter>
<filter id="filter1_d" x="203.025" y="552.268" width="239.217" height="239.217" filterUnits="userSpaceOnUse" color-interpolation-filters="sRGB">
<feFlood flood-opacity="0" result="BackgroundImageFix"/>
<feColorMatrix in="SourceAlpha" type="matrix" values="0 0 0 0 0 0 0 0 0 0 0 0 0 0 0 0 0 0 127 0"/>
<feOffset dy="4"/>
<feGaussianBlur stdDeviation="20"/>
<feColorMatrix type="matrix" values="0 0 0 0 0.7625 0 0 0 0 0.0254167 0 0 0 0 0.720778 0 0 0 1 0"/>
<feBlend mode="normal" in2="BackgroundImageFix" result="effect1_dropShadow"/>
<feBlend mode="normal" in="SourceGraphic" in2="effect1_dropShadow" result="shape"/>
</filter>
<filter id="filter2_d" x="90.7662" y="633.268" width="239.217" height="239.217" filterUnits="userSpaceOnUse" color-interpolation-filters="sRGB">
<feFlood flood-opacity="0" result="BackgroundImageFix"/>
<feColorMatrix in="SourceAlpha" type="matrix" values="0 0 0 0 0 0 0 0 0 0 0 0 0 0 0 0 0 0 127 0"/>
<feOffset dy="4"/>
<feGaussianBlur stdDeviation="20"/>
<feColorMatrix type="matrix" values="0 0 0 0 0.7625 0 0 0 0 0.0254167 0 0 0 0 0.720778 0 0 0 1 0"/>
<feBlend mode="normal" in2="BackgroundImageFix" result="effect1_dropShadow"/>
<feBlend mode="normal" in="SourceGraphic" in2="effect1_dropShadow" result="shape"/>
</filter>
<linearGradient id="paint0_linear" x1="188.734" y1="339.883" x2="-73.5" y2="586.883" gradientUnits="userSpaceOnUse">
<stop stop-color="#30CDFC"/>
<stop offset="1" stop-color="#2F96F9"/>
</linearGradient>
<linearGradient id="paint1_linear" x1="544.375" y1="-177.687" x2="-99" y2="428.313" gradientUnits="userSpaceOnUse">
<stop stop-color="#735FF3"/>
<stop offset="1" stop-color="#5272F5"/>
</linearGradient>
<linearGradient id="paint2_linear" x1="588.375" y1="-504.688" x2="-55" y2="101.312" gradientUnits="userSpaceOnUse">
<stop stop-color="#30CDFC"/>
<stop offset="1" stop-color="#30C9FB"/>
</linearGradient>
<linearGradient id="paint3_linear" x1="600.875" y1="126.813" x2="198.5" y2="505.813" gradientUnits="userSpaceOnUse">
<stop stop-color="#30CDFC"/>
<stop offset="1" stop-color="#2F96F9"/>
</linearGradient>
<linearGradient id="paint4_linear" x1="624.214" y1="119.143" x2="336.5" y2="390.143" gradientUnits="userSpaceOnUse">
<stop stop-color="#FA5963"/>
<stop offset="1" stop-color="#FC6D5D"/>
</linearGradient>
<linearGradient id="paint5_linear" x1="375.784" y1="254.608" x2="259" y2="364.608" gradientUnits="userSpaceOnUse">
<stop stop-color="#30CDFC"/>
<stop offset="1" stop-color="#2F96F9"/>
</linearGradient>
</defs>
</svg>
