<svg xmlns="http://www.w3.org/2000/svg" width="148" height="148"><path fill="#4756f7" d="M74 0C33.131 0 0 33.131 0 74s33.131 74 74 74c40.87 0 74-33.131 74-74S114.87 0 74 0z"/><path fill="#3296f1" d="M76.324.04L2.182 74.181a15.313 15.313 0 00-2.127 2.662A73.79 73.79 0 003.69 97.143c6 4.61 14.631 4.167 20.125-1.327l85-85c.457-.457.879-.934 1.266-1.431A73.595 73.595 0 0076.324.039z"/><path fill="#71d9ff" d="M118.58 14.936L64.258 69.258c-12.007 12.008-12.007 31.475 0 43.482 12.008 12.007 31.475 12.007 43.482 0l40.24-40.238c-.468-23.515-11.902-44.338-29.4-57.566z"/><g><path fill="#9ef569" d="M74 12C53.38 23.868 28 46.698 28 72c0 25.292 25.38 48.144 46 60 20.62-11.856 46-34.708 46-60 0-25.302-25.38-48.132-46-60z"/><path fill="#36cc29" d="M74 12v120c20.62-11.856 46-34.708 46-60 0-25.302-25.38-48.132-46-60z"/><g><path fill="#6fdf47" d="M67 46v23.002L60 62 50 72l17 17v58.672a74.657 74.657 0 0014 0V89l17-17-10.008-10L81 68.992V46H67z"/><path fill="#49b125" d="M74 46v102c2.361 0 4.696-.111 7-.328V89l17-17-10.008-10L81 68.992V46h-7z"/></g></g></svg>