<svg xmlns="http://www.w3.org/2000/svg" width="148" height="148"><path fill="#a84fd4" d="M74 0C33.131 0 0 33.131 0 74s33.131 74 74 74 74-33.131 74-74S114.869 0 74 0z"/><path fill="#3240d6" d="M74 0c-2.662 0-5.29.14-7.88.414a41.46 41.46 0 00-4.108 3.598L.479 65.545A74.693 74.693 0 000 74c0 29.204 16.918 54.452 41.486 66.488l78.502-78.5c9.385-9.386 13.266-22.187 11.647-34.402C118.07 10.764 97.293 0 74 0z"/><path fill="#e24fe6" d="M107.559 77.84c-4.587 0-9.173 1.75-12.672 5.25l-56.04 56.04C49.306 144.789 61.277 148 74 148c2.359 0 4.692-.11 6.994-.326l39.238-39.24c7-6.998 7-18.345 0-25.344-3.5-3.5-8.087-5.25-12.673-5.25z"/><g><path fill="#fdd7bd" d="M70.566 17.596C67.058 17.573 63.974 21.298 64 25c.128 18.229-16.118 28.316-28 40-.567.557-1.917 1-3 1v48h8c7.738-.056 8.253 5.058 16 5h43c4.401 0 8-3.6 8-8s-3.822-6.619-8-8c5.164 0 10-1.874 10-8 0-3.896-2.822-7.163-6.523-7.861C107.576 86.062 112 83.906 112 79c0-3.9-2.827-7.17-6.533-7.863C109.589 70.087 114 67.915 114 63c0-4.4-3.6-8-8-8H78c2.158-9.616 3.282-15.872 1-26-1.912-8.447-5.338-11.385-8.434-11.404z"/><path fill="#f5c3a0" d="M70.566 17.596C67.058 17.573 63.974 21.298 64 25c.09 12.944-8.078 21.78-17.074 30H78c2.158-9.616 3.282-15.872 1-26-1.912-8.447-5.338-11.385-8.434-11.404zM90 55v64h10c4.401 0 8-3.6 8-8s-3.822-6.619-8-8c5.164 0 10-1.874 10-8 0-3.896-2.822-7.163-6.523-7.861C107.576 86.062 112 83.906 112 79c0-3.9-2.827-7.17-6.533-7.863C109.589 70.087 114 67.915 114 63c0-4.4-3.6-8-8-8H90z"/><path fill="#00c0f3" d="M1.736 58A74.178 74.178 0 000 74c0 17.387 6 33.37 16.037 46H30c2.201 0 4-1.8 4-4V62c0-2.2-1.799-4-4-4H1.736z"/></g></svg>