<svg xmlns="http://www.w3.org/2000/svg" width="148" height="148"><path fill="#725ff3" d="M74 0C33.131 0 0 33.131 0 74s33.131 74 74 74c40.868 0 74-33.131 74-74S114.868 0 74 0z"/><path fill="#21bafe" d="M38.145 16.344a8.227 8.227 0 00-5.834 2.416L5.777 45.293C2.058 54.12 0 63.819 0 74c0 .133.005.264.006.396l43.97-43.97a8.25 8.25 0 00-5.831-14.082z"/><path fill="#2f96f9" d="M98.918 17.434a14.951 14.951 0 00-10.606 4.392L6.278 103.861a74.212 74.212 0 0017.73 24.696l85.516-85.52c5.857-5.857 5.857-15.354 0-21.21a14.951 14.951 0 00-10.605-4.393z"/><path fill="#f0b993" d="M15.305 95.807v15h18v-15h-18z"/><path fill="#fdd7bd" d="M24.305 53.813c-9.35 0-17 7.648-17 17v12c0 9.35 7.65 17 17 17s17-7.65 17-17v-12c0-9.352-7.65-17-17-17z"/><path fill="#4b5d63" d="M24.305 53.813c-9.35 0-17 7.648-17 17v2.994c9.836 3.713 21.18-.161 27-9 1.21 3.64 3.637 7.26 7 9v-2.995c0-9.35-7.65-17-17-17z"/><path fill="#8ce6b0" d="M6.305 102.807c-.162 0-.325.003-.485.01l.006.011c.225.533.458 1.064.695 1.59l.051.113c.227.5.459.996.696 1.489l.082.17c.227.467.458.932.693 1.394l.123.238c.231.45.467.897.707 1.34l.121.223c.241.442.486.88.736 1.316l.14.242c.25.433.504.864.763 1.291l.135.225c.266.437.537.87.812 1.3l.12.188c.282.441.57.88.863 1.315l.142.21c.294.434.593.863.895 1.29l.17.236c.28.392.563.783.851 1.17l.223.295c.278.368.559.735.844 1.098l.232.296c.28.355.564.707.851 1.057l.264.32c.285.343.574.685.865 1.024l.274.314c.287.33.578.658.87.983l.304.334c.292.319.586.636.884.95l.34.358c.296.308.595.615.897.918l.408.408c.285.282.57.563.86.84.147.143.297.284.447.426.297.281.596.561.898.838.134.123.271.243.406.365.304.274.61.548.918.817l.397.341c.307.264.615.527.927.786l.422.345c.305.25.611.497.92.742.15.118.298.237.45.354a62.833 62.833 0 001.388 1.057 69.959 69.959 0 002.404 1.712 66.194 66.194 0 001.497.997 75.277 75.277 0 004.658 2.783l.54.293a80.164 80.164 0 001.571.82c.332.168.666.333 1.002.496a73.572 73.572 0 0012.723 4.81v-30.538c0-6.6-5.4-12-12-12h-9l-9 7-9-7h-9z"/><path fill="#5abe83" d="M33.305 102.807l-9 7v19.023c.399.362.804.721 1.21 1.074l.12.104c.406.35.817.7 1.232 1.043l.137.111c.4.33.803.656 1.21.977l.186.144c.397.311.798.62 1.202.922l.25.188c.387.288.776.57 1.168.851l.275.195c.4.283.803.563 1.209.838l.258.174c.396.267.793.53 1.195.79l.326.206c.387.246.775.49 1.166.729l.377.228c.378.228.759.453 1.14.674l.395.229c.383.219.769.432 1.157.644l.437.238c.371.2.744.396 1.12.59l.472.242c.38.193.761.384 1.144.57l.45.216a73.572 73.572 0 0012.164 4.539v-30.54c0-6.6-5.4-12-12-12h-9z"/><path fill="#f0b993" d="M62.305 86.807v18h24v-18h-24z"/><path fill="#ddd47e" d="M96.305 37.807a10 10 0 00-10 10 10 10 0 0010 10 10 10 0 0010-10 10 10 0 00-10-10z"/><path fill="#fdd7bd" d="M74.305 29.807c-12.65 0-23 10.35-23 23v16c0 12.65 10.35 23 23 23s23-10.35 23-23v-16c0-12.65-10.35-23-23-23z"/><path fill="#fdff8f" d="M74.305 29.807c-12.65 0-23 10.35-23 23v4c13.308 5.024 27.126-.042 35-12 1.639 4.925 6.45 9.647 11 12v-4c0-12.65-10.35-23-23-23z"/><path fill="#8ce6b0" d="M51.305 95.807c-8.8 0-16 7.2-16 16v25.279C46.564 144.006 59.815 148 74 148c14.442 0 27.916-4.143 39.305-11.297v-24.896c0-8.8-7.2-16-16-16h-11l-12 8-12-8h-11z"/><path fill="#5abe83" d="M86.305 95.807l-12 8v44.19c14.327-.059 27.69-4.19 39-11.294v-24.896c0-8.8-7.2-16-16-16h-11z"/><g><path fill="#f0b993" d="M115.31 95.807v15h18v-15h-18z"/><path fill="#d8555f" d="M144.305 58.807a8 8 0 103.693 15.097 74.244 74.244 0 00-1.498-14.793 7.99 7.99 0 00-2.195-.304z"/><path fill="#fdd7bd" d="M124.31 53.813c-9.35 0-17 7.648-17 17v12c0 9.35 7.65 17 17 17s17.002-7.65 17.002-17v-12c0-9.352-7.651-17-17.001-17z"/><path fill="#fc6d5d" d="M124.31 53.813c-9.35 0-17 7.648-17 17v2.994c9.838 3.713 21.18-.161 27-9 1.212 3.64 3.64 7.26 7.002 9v-2.995c0-9.35-7.651-17-17.001-17z"/><path fill="#8ce6b0" d="M106.31 102.807c-6.6 0-12 5.4-12 12v30.37a73.451 73.451 0 0011.55-4.37l.558-.272a72.587 72.587 0 002.566-1.314l.545-.295a80.712 80.712 0 002.524-1.45c.195-.116.388-.235.582-.353.312-.192.623-.388.933-.584.202-.128.405-.256.606-.387a75.913 75.913 0 003.926-2.724 67.581 67.581 0 001.388-1.061l.428-.336c.315-.249.628-.5.94-.756l.408-.336c.32-.266.639-.534.955-.806l.357-.31c.324-.283.648-.568.967-.856l.336-.305c.32-.293.638-.59.953-.889l.389-.369c.319-.306.634-.613.947-.924l.324-.324c.33-.33.657-.666.98-1.004l.264-.28c.315-.334.63-.668.94-1.007l.252-.281c.313-.346.623-.695.93-1.047l.208-.242c.31-.36.62-.724.922-1.09l.215-.262a69.1 69.1 0 00.904-1.12l.192-.245c.3-.385.598-.772.892-1.162l.168-.225c.303-.406.602-.816.897-1.228l.13-.184c.325-.456.644-.915.958-1.379l.045-.066c.312-.463.62-.93.922-1.4l.091-.147c.284-.445.565-.893.84-1.344l.112-.185c.266-.44.528-.881.785-1.326l.125-.217c.253-.443.502-.888.746-1.336l.111-.205c.251-.463.495-.93.736-1.399l.082-.156c.244-.479.482-.96.717-1.443l.074-.153c.238-.496.472-.996.7-1.498l.049-.105c.238-.528.47-1.06.697-1.594l.008-.02h-8.873l-9 7-9-7h-9z"/><path fill="#5abe83" d="M133.31 102.807l-9 7v18.453a74.15 74.15 0 0017.874-25.453h-8.873z"/></g></svg>