<svg xmlns="http://www.w3.org/2000/svg" width="148" height="148"><path fill="#3a91f5" d="M74 0C33.131 0 0 33.131 0 74s33.131 74 74 74 74-33.131 74-74S114.869 0 74 0z"/><path fill="#8bdefd" d="M73.994 0L20.727 53.27c-5.974 5.974-5.974 15.66 0 21.634 5.975 5.974 15.66 5.974 21.634 0l66.297-66.297C97.96 2.924 86.108 0 73.994 0z"/><path fill="#57cbf5" d="M119.586 15.707l-83.44 83.44c-10.08 10.08-10.892 25.92-2.435 36.93A73.56 73.56 0 0060.34 146.74a27.944 27.944 0 0015.514-7.886l71.818-71.819c-1.944-20.816-12.505-39.127-28.086-51.328z"/><g><path fill="#d62d2d" d="M74 112l-13 13h26l-13-13z"/><path fill="#b3efff" d="M73.25 111v36.996c.5.005 1 .006 1.5 0V111h-1.5z"/><path fill="#f55460" d="M55.76 28.004c-1-.014-2.012.02-3.03.105-10.73.901-23.044 8.037-25.416 25.358-3.495 25.51 22.861 47.753 43.598 57.822a7.098 7.098 0 006.176 0c20.737-10.077 47.094-32.306 43.598-57.822C118.313 36.146 106 29.01 95.27 28.109c-8.143-.686-15.854 1.88-21.27 6.58-4.739-4.113-11.236-6.588-18.24-6.685z"/><path fill="#d62d2d" d="M92.691 28c-5.97-.006-11.588 1.72-16.097 4.719 25.989 22.745 4.926 55.817-18.186 71.36a104.906 104.906 0 0012.504 7.21 7.098 7.098 0 006.176 0c20.737-10.077 47.094-32.306 43.598-57.822C118.313 36.146 106 29.01 95.27 28.109A31.11 31.11 0 0092.69 28z"/></g></svg>