<svg xmlns="http://www.w3.org/2000/svg" width="148" height="148" viewBox="0 0 148 148">
    <g>
        <path fill="#4756f7" d="M 74 0 C 33.131 0 0 33.131 0 74 C 0 114.869 33.131 148 74 148 C 114.87 148 148 114.869 148 74 C 148 33.131 114.87 0 74 0 z "/>
        <g>
            <path fill="#3296f1" d="M 76.324219 0.0390625 L 2.1816406 74.181641 C 1.3586406 75.004641 0.6506875 75.89875 0.0546875 76.84375 C 0.3216875 83.90875 1.5784063 90.719578 3.6914062 97.142578 C 9.6904062 101.75358 18.322406 101.31041 23.816406 95.816406 L 108.81641 10.816406 C 109.27341 10.359406 109.69503 9.8817656 110.08203 9.3847656 C 100.04003 3.7657656 88.558219 0.4160625 76.324219 0.0390625 z"/>
            <path fill="#71d9ff" d="M 118.58008 14.935547 L 64.257812 69.257812 C 52.250813 81.265812 52.250813 100.73323 64.257812 112.74023 C 76.265812 124.74723 95.733234 124.74723 107.74023 112.74023 L 147.98047 72.501953 C 147.51247 48.986953 136.07808 28.163547 118.58008 14.935547 z"/>
        </g>
        <g>
            <g>
                <path fill="#9ef569" d="M 74 12 C 53.38 23.868 28 46.698 28 72 C 28 97.292 53.38 120.144 74 132 C 94.62 120.144 120 97.292 120 72 C 120 46.698 94.62 23.868 74 12 z"/>
                <path fill="#36cc29" d="M 74 12 L 74 132 C 94.62 120.144 120 97.292 120 72 C 120 46.698 94.62 23.868 74 12 z"/>
            </g>
            <g>
                <path fill="#6fdf47" d="M 67 46 L 67 69.001953 L 60 62 L 50 72 L 67 89 L 67 147.67188 C 69.304 147.88887 71.64 148 74 148 C 76.362 148 78.696 147.88888 81 147.67188 L 81 89 L 98 72 L 87.992188 62 L 81 68.992188 L 81 46 L 67 46 z"/>
                <path fill="#49b125" d="M 74 46 L 74 148 C 76.361 148 78.696 147.88888 81 147.67188 L 81 89 L 98 72 L 87.992188 62 L 81 68.992188 L 81 46 L 74 46 z"/>
            </g>
        </g>
    </g>
</svg>
