<svg xmlns="http://www.w3.org/2000/svg" width="148" height="148" viewBox="0 0 148 148">
    <g>
        <path fill="#3a91f5" d="M 74 0 C 33.131 0 0 33.131 0 74 C 0 114.869 33.131 148 74 148 C 114.869 148 148 114.869 148 74 C 148 33.131 114.869 0 74 0 z"/>
        <g>
            <path fill="#8bdefd" d="M 73.994141 0 L 20.726562 53.269531 C 14.752562 59.243531 14.752562 68.930297 20.726562 74.904297 C 26.701563 80.878297 36.387328 80.878297 42.361328 74.904297 L 108.6582 8.6074219 C 97.959203 2.9244219 86.107141 0 73.994141 0 z"/>
            <path fill="#57cbf5" d="M 119.58594 15.707031 L 36.146484 99.146484 C 26.065484 109.22748 25.253937 125.06717 33.710938 136.07617 C 41.662938 141.24817 50.669844 144.93523 60.339844 146.74023 C 66.018844 145.85723 71.478516 143.22852 75.853516 138.85352 L 147.67188 67.035156 C 145.72787 46.219156 135.16694 27.908031 119.58594 15.707031 z"/>
        </g>
        <g>
            <path fill="#d62d2d" d="M 74 112 L 61 125 L 87 125 L 74 112 z"/>
            <path fill="#b3efff" d="M 73.25 111 L 73.25 147.99609 C 73.75 148.00109 74.25 148.00209 74.75 147.99609 L 74.75 111 L 73.25 111 z"/>
            <g>
                <path fill="#f55460" d="M 55.759766 28.003906 C 54.759166 27.990035 53.748094 28.024 52.730469 28.109375 C 41.999469 29.010375 29.686453 36.145797 27.314453 53.466797 C 23.819453 78.976797 50.175109 101.22006 70.912109 111.28906 C 72.850109 112.23106 75.148891 112.23206 77.087891 111.28906 C 97.824891 101.21206 124.18155 78.982797 120.68555 53.466797 C 118.31255 36.145797 106.00053 29.010375 95.269531 28.109375 C 87.126531 27.423375 79.416 29.988453 74 34.689453 C 69.261 30.576078 62.763963 28.101004 55.759766 28.003906 z"/>
                <path fill="#d62d2d" d="M 92.691406 28 C 86.721527 27.994408 81.102625 29.720125 76.59375 32.71875 C 102.58275 55.46375 81.520203 88.536125 58.408203 104.07812 C 62.614203 106.90013 66.870109 109.32606 70.912109 111.28906 C 72.850109 112.23106 75.148891 112.23206 77.087891 111.28906 C 97.824891 101.21206 124.18155 78.982797 120.68555 53.466797 C 118.31255 36.145797 106.00053 29.010375 95.269531 28.109375 C 94.404656 28.036625 93.544246 28.000799 92.691406 28 z"/>
            </g>
        </g>
    </g>
</svg>
