<svg xmlns="http://www.w3.org/2000/svg" xmlns:xlink="http://www.w3.org/1999/xlink" width="533" height="140" viewBox="0 0 533 140">
    <defs>
        <linearGradient id="gradient1" x1="0" x2="0" y1="1" y2="0">
            <stop offset="0" stop-color="#fc3f66"/>
            <stop offset="0.2" stop-color="#fd5160"/>
            <stop offset="0.4" stop-color="#fd615c"/>
            <stop offset="0.6" stop-color="#fe6a59"/>
            <stop offset="1" stop-color="#fe6d58"/>
        </linearGradient>
        <linearGradient id="gradient2" x1="0" x2="0" y1="1" y2="0">
            <stop offset="0" stop-color="#6e3cf6"/>
            <stop offset="0.15" stop-color="#9247e1"/>
            <stop offset="0.25" stop-color="#af50d1"/>
            <stop offset="0.4" stop-color="#c556c4"/>
            <stop offset="0.6" stop-color="#d55bbb"/>
            <stop offset="0.75" stop-color="#de5eb6"/>
            <stop offset="1" stop-color="#e15fb4"/>
        </linearGradient>
        <linearGradient id="gradient3" x1="0" x2="0" y1="1" y2="0">
            <stop offset="0" stop-color="#4a3bf6"/>
            <stop offset="1" stop-color="#458efa"/>
        </linearGradient>
        <linearGradient id="gradient4" x1="0" x2="0" y1="1" y2="0">
            <stop offset="0" stop-color="#2c63fa"/>
            <stop offset="0.15" stop-color="#2884fb"/>
            <stop offset="0.25" stop-color="#24a1fd"/>
            <stop offset="0.4" stop-color="#21b7fe"/>
            <stop offset="0.55" stop-color="#1fc7fe"/>
            <stop offset="0.75" stop-color="#1dd0ff"/>
            <stop offset="1" stop-color="#1dd3ff"/>
        </linearGradient>
        <linearGradient id="gradient5" x1="0" x2="0" y1="1" y2="0">
            <stop offset="0" stop-color="#00ACFA"/>
            <stop offset="0.02" stop-color="#00B0FA"/>
            <stop offset="0.2" stop-color="#00CDFC"/>
            <stop offset="0.35" stop-color="#00E3FD"/>
            <stop offset="0.5" stop-color="#00F3FE"/>
            <stop offset="0.7" stop-color="#00FCFF"/>
            <stop offset="1" stop-color="#00FFFF"/>
        </linearGradient>
        <symbol id="battery" viewBox="0 0 80 34">
            <g>
                <g fill="#fff">
                    <path d="M 10 0 C 5.5989128 0 2 3.599915 2 8 L 2 26 C 2 30.400086 5.5989128 34 10 34 L 69 34 C 73.400086 34 77 30.400086 77 26 L 77 8 C 77 3.599915 73.400086 0 69 0 L 10 0 z"/>
                    <path d="M 2 9 C 0.892 9 0 9.892 0 11 L 0 23 C 0 24.108 0.892 25 2 25 C 3.108 25 4 24.108 4 23 L 4 11 C 4 9.892 3.108 9 2 9 z M 76 12 C 74.892 12 74 12.892 74 14 L 74 20 C 74 21.108 74.892 22 76 22 L 78 22 C 79.108 22 80 21.108 80 20 L 80 14 C 80 12.892 79.108 12 78 12 L 76 12 z"/>
                </g>
                <g>
                    <path fill="url(#gradient1)" d="M 10 5 C 8.3499679 5 7 6.349968 7 8 L 7 26 C 7 27.650032 8.3499679 29 10 29 L 20 29 L 20 5 L 10 5 z"/>
                    <path fill="url(#gradient2)" d="M 20 5 L 20 29 L 33 29 L 33 5 L 20 5 z"/>
                    <path fill="url(#gradient3)" d="M 33 5 L 33 29 L 46 29 L 46 5 L 33 5 z"/>
                    <path fill="url(#gradient4)" d="M 46 5 L 46 29 L 59 29 L 59 5 L 46 5 z"/>
                    <path fill="url(#gradient5)" d="M 59 5 L 59 29 L 69 29 C 70.650032 29 72 27.650032 72 26 L 72 8 C 72 6.349968 70.650032 5 69 5 L 59 5 z"/>
                </g>
            </g>
        </symbol>
        <symbol id="siberianWellness" viewBox="0 0 22.5 20">
            <path fill="#fff" d="M 6.0605469 0 L 11.25 9.0117188 L 16.439453 0 L 13.544922 0 L 11.25 4 L 8.9550781 0 L 6.0605469 0 z M 5.1894531 0.50585938 L 3.765625 2.9902344 L 7.4863281 9.4726562 L 10.376953 9.4726562 L 5.1894531 0.50585938 z M 17.310547 0.50585938 L 14.144531 5.9785156 L 16.990234 5.9785156 L 18.734375 2.9902344 L 17.310547 0.50585938 z M 1.46875 6.9902344 L 0 9.4726562 L 6.3359375 9.4726562 L 4.9121094 6.9902344 L 1.46875 6.9902344 z M 13.546875 6.9902344 L 12.123047 9.4726562 L 22.5 9.4726562 L 21.03125 6.9902344 L 13.546875 6.9902344 z M 0 10.482422 L 1.46875 13.011719 L 8.9550781 13.011719 L 10.376953 10.482422 L 0 10.482422 z M 12.123047 10.482422 L 17.310547 19.494141 L 18.734375 16.966797 L 15.015625 10.482422 L 12.123047 10.482422 z M 16.164062 10.482422 L 17.585938 13.011719 L 21.03125 13.011719 L 22.498047 10.482422 L 16.164062 10.482422 z M 11.25 10.988281 L 6.0605469 20 L 8.9550781 20 L 12.673828 13.472656 L 11.25 10.988281 z M 5.5097656 13.978516 L 3.765625 16.966797 L 5.1894531 19.494141 L 8.3574219 13.978516 L 5.5097656 13.978516 z M 13.271484 14.484375 L 11.847656 16.966797 L 13.546875 20 L 16.439453 20 L 13.271484 14.484375 z"/>
        </symbol>
        <symbol id="textRu" viewBox="0 0 150.822 36">
            <path fill="#fff" d="M 7.8847656 0 C 5.3922256 0 3.2634562 0.6349925 1.7226562 1.6328125 C 1.0885062 2.0856325 0.86203312 1.9938456 0.40820312 1.5410156 L 0.046875 1.8144531 L 2.765625 5.1679688 C 4.170185 3.9898288 5.8463819 3.5371094 7.7949219 3.5371094 C 9.9258019 3.5371094 11.375 3.8986644 11.375 4.8964844 C 11.375 5.6207944 10.558921 5.8925781 8.3378906 5.8925781 L 4.984375 5.8925781 L 4.984375 8.9746094 L 8.3378906 8.9746094 C 10.876501 8.9746094 11.601563 9.2458519 11.601562 10.107422 C 11.601562 11.058152 10.062363 11.511719 7.9765625 11.511719 C 5.9378525 11.511719 3.9426694 11.012456 2.5371094 9.4726562 L 0 12.054688 C 2.35628 14.184567 5.3487825 15 7.9765625 15 C 12.690133 15 16.087891 13.550987 16.087891 10.560547 C 16.087891 8.9746669 14.818318 7.6590662 12.960938 7.1601562 C 14.410577 6.6171662 15.453135 5.3495463 15.453125 4.0351562 C 15.453145 1.5877063 11.963176 0 7.8847656 0 z M 22.039062 0.25195312 L 22.039062 0.70117188 C 22.488892 0.70117188 22.623689 0.97173875 22.443359 1.5117188 L 18.166016 12.769531 C 17.760286 13.715251 17.26539 14.210611 16.5 14.300781 L 16.5 14.75 L 21.228516 14.75 L 22.263672 11.869141 L 28.703125 11.869141 L 29.828125 14.75 L 35.367188 14.75 L 35.367188 14.300781 C 34.646878 14.300781 34.198234 13.986292 33.927734 13.445312 L 28.523438 0.25195312 L 22.039062 0.25195312 z M 36 0.25195312 L 36 0.65429688 C 36.58106 0.65429688 36.939453 0.96676812 36.939453 1.5488281 L 36.939453 14.75 L 41.068359 14.75 L 41.068359 9.5878906 L 46.052734 9.5878906 C 49.105294 9.5878906 51.304688 7.6579019 51.304688 4.9199219 C 51.304688 2.1368619 49.150374 0.25195313 46.052734 0.25195312 L 36 0.25195312 z M 59.115234 0.25195312 C 55.738084 0.25195312 53.351563 2.1878731 53.351562 4.8457031 C 53.351562 6.7812231 54.657588 8.3128931 56.773438 9.0332031 L 53.484375 13.400391 C 53.079625 13.985451 52.54098 14.300781 52 14.300781 L 52 14.75 L 57.402344 14.75 L 61.322266 9.4824219 L 63.751953 9.4824219 L 63.751953 14.75 L 67.892578 14.75 L 67.892578 1.5566406 C 67.892578 0.97158062 68.254784 0.65625 68.839844 0.65625 L 68.839844 0.25195312 L 59.115234 0.25195312 z M 70.130859 0.25195312 L 70.130859 0.74414062 C 70.939329 0.74414062 71.658969 1.1485613 72.287109 1.9570312 L 76.193359 7.0742188 L 71.478516 13.404297 C 71.073786 13.988357 70.537027 14.302734 69.998047 14.302734 L 69.998047 14.75 L 75.115234 14.75 L 80.007812 8.2421875 L 80.007812 13.179688 C 80.007812 13.807837 79.692435 14.212891 79.109375 14.212891 L 79.109375 14.705078 L 85.080078 14.705078 L 85.080078 14.212891 C 84.496008 14.212891 84.181641 13.852918 84.181641 13.179688 L 84.181641 8.1074219 L 89.166016 14.75 L 94.283203 14.75 L 94.283203 14.302734 C 93.744213 14.302734 93.207464 13.989199 92.802734 13.449219 L 88.087891 7.1191406 L 91.994141 2.0019531 C 92.623281 1.1934831 93.340967 0.7890625 94.148438 0.7890625 L 94.148438 0.29492188 L 89.03125 0.29492188 L 84.181641 6.625 L 84.181641 1.8222656 C 84.181641 1.1931256 84.496008 0.7890625 85.080078 0.7890625 L 85.080078 0.29492188 L 79.109375 0.29492188 L 79.109375 0.7890625 C 79.692435 0.7890625 80.007812 1.1490456 80.007812 1.8222656 L 80.007812 6.4902344 L 75.248047 0.25195312 L 70.130859 0.25195312 z M 101.03711 0.25195312 L 101.03711 0.70117188 C 101.48694 0.70117188 101.62274 0.97173875 101.44141 1.5117188 L 97.164062 12.769531 C 96.759322 13.715251 96.263437 14.210611 95.498047 14.300781 L 95.498047 14.75 L 100.27148 14.75 L 101.30664 11.869141 L 107.74609 11.869141 L 108.87109 14.75 L 114.45508 14.75 L 114.45508 14.300781 C 113.68868 14.300781 113.23941 13.986292 112.92383 13.445312 L 107.52148 0.25195312 L 101.03711 0.25195312 z M 114.99609 0.25195312 L 114.99609 0.74414062 C 115.57815 0.74414062 115.9375 1.1006919 115.9375 1.6386719 L 115.9375 14.75 L 129.67578 14.75 L 129.67578 10.455078 L 129.22852 10.455078 C 129.22852 10.992048 128.9159 11.349461 128.37891 11.394531 L 120.05469 11.394531 L 120.05469 8.84375 L 126.31836 8.84375 L 126.31836 5.8007812 L 120.05469 5.8007812 L 120.05469 3.5175781 L 128.01953 3.5175781 C 128.51242 3.5175781 128.91602 3.9210512 128.91602 4.4570312 L 129.36133 4.4570312 L 129.36133 0.25195312 L 114.99609 0.25195312 z M 130.99805 0.25195312 L 130.99805 0.74414062 C 131.58011 0.74414062 131.89258 1.1006919 131.89258 1.6386719 L 131.89258 14.75 L 135.60742 14.75 L 135.60742 5.7109375 L 140.75391 13.677734 L 145.81055 5.6660156 L 145.81055 14.75 L 149.92773 14.75 L 149.92773 1.6386719 C 149.92773 1.0566119 150.2402 0.74414062 150.82227 0.74414062 L 150.82227 0.25195312 L 145.09375 0.25195312 L 140.8418 6.7402344 L 136.67969 0.25195312 L 130.99805 0.25195312 z M 25.416016 3.1777344 L 27.667969 9.1230469 L 23.298828 9.1230469 L 25.416016 3.1777344 z M 104.45898 3.1777344 L 106.70898 9.1230469 L 102.3418 9.1230469 L 104.45898 3.1777344 z M 59.970703 3.2675781 L 63.751953 3.2675781 L 63.751953 6.5097656 L 59.699219 6.5097656 C 58.258599 6.5097656 57.583984 5.9243937 57.583984 4.9335938 C 57.583984 3.8085438 58.485003 3.2675781 59.970703 3.2675781 z M 41.115234 3.3046875 L 45.289062 3.3046875 C 46.859923 3.3046875 47.533203 3.7981981 47.533203 4.8300781 C 47.533203 5.9971981 46.815842 6.4902344 45.289062 6.4902344 L 41.115234 6.4902344 L 41.115234 3.3046875 z M 9.2285156 21 C 3.6373356 21 0.001953125 23.999662 0.001953125 28.544922 C 0.001953125 33.091192 3.6385138 36.04608 9.1835938 36 C 12.137964 36 14.182938 35.636539 16.455078 34.636719 L 14.818359 31.410156 C 14.045949 32.136476 12.137986 32.591797 10.228516 32.591797 C 6.6840556 32.591797 4.3652344 30.99955 4.3652344 28.5 C 4.3652344 26.04554 6.3195262 24.727721 9.4101562 24.681641 C 11.137306 24.681641 13.365036 25.046276 14.728516 25.728516 L 16.636719 21.683594 L 16.228516 21.5 C 15.955026 21.90975 15.454978 22.091486 14.955078 21.910156 C 14.136588 21.636666 11.455566 21 9.2285156 21 z M 61.226562 21 C 55.636392 21 52 23.955693 52 28.501953 C 52 33.047223 55.636551 36 61.181641 36 C 64.136011 36 66.179062 35.636539 68.451172 34.636719 L 66.816406 31.410156 C 66.042996 32.137486 64.135032 32.591797 62.226562 32.591797 C 58.680112 32.591797 56.363281 31.001503 56.363281 28.501953 C 56.363281 26.046493 58.316573 24.727721 61.408203 24.681641 C 63.135343 24.681641 65.361129 25.046276 66.724609 25.728516 L 68.634766 21.683594 L 68.224609 21.5 C 67.952109 21.90975 67.451082 22.091486 66.951172 21.910156 C 66.132702 21.636666 63.453613 21 61.226562 21 z M 17.5 21.25 L 17.5 21.699219 C 17.99391 21.699219 18.398438 22.148846 18.398438 22.597656 L 18.398438 24.841797 C 18.398438 28.747907 20.776372 31.126953 24.726562 31.126953 C 25.983853 31.126953 27.151714 30.947382 28.183594 30.632812 L 28.183594 35.75 L 32.314453 35.75 L 32.314453 22.597656 C 32.314453 22.103756 32.809003 21.699219 33.257812 21.699219 L 33.257812 21.25 L 28.183594 21.25 L 28.183594 27.265625 C 27.195794 27.625285 26.252573 27.804688 25.220703 27.804688 C 23.469523 27.804688 22.527344 26.638453 22.527344 24.439453 L 22.527344 21.25 L 17.5 21.25 z M 39.539062 21.25 L 39.539062 21.701172 C 39.989893 21.701172 40.123689 21.971739 39.943359 22.511719 L 35.666016 33.769531 C 35.260266 34.716261 34.7664 35.210621 34 35.300781 L 34 35.75 L 38.728516 35.75 L 39.763672 32.869141 L 46.203125 32.869141 L 47.330078 35.75 L 52.912109 35.75 L 52.912109 35.300781 C 52.146709 35.300781 51.697234 34.985292 51.427734 34.445312 L 46.023438 21.25 L 39.539062 21.25 z M 69.998047 21.25 L 69.998047 25.560547 L 70.445312 25.560547 C 70.445312 25.022567 70.75969 24.662257 71.34375 24.617188 L 75.517578 24.617188 L 75.517578 35.75 L 80.546875 35.75 L 80.546875 35.300781 C 79.963815 35.300781 79.648437 34.943277 79.648438 34.404297 L 79.648438 24.617188 L 83.824219 24.617188 C 84.408279 24.617188 84.720703 24.932407 84.720703 25.560547 L 85.169922 25.560547 L 85.259766 25.560547 L 85.259766 21.25 L 69.998047 21.25 z M 86.998047 21.25 L 86.998047 21.744141 C 87.537027 21.744141 87.939453 22.148678 87.939453 22.642578 L 87.939453 35.75 L 97.009766 35.75 C 100.06232 35.75 102.25977 33.864943 102.25977 31.126953 C 102.25977 28.387983 100.1064 26.414062 97.009766 26.414062 L 92.070312 26.414062 L 92.070312 21.25 L 86.998047 21.25 z M 103 21.25 L 103 21.742188 C 103.58105 21.742188 103.93734 22.100692 103.9375 22.638672 L 103.9375 35.75 L 117.67773 35.75 L 117.67773 31.455078 L 117.67773 31.410156 L 117.23242 31.410156 C 117.23242 31.947136 116.91885 32.305529 116.38086 32.349609 L 108.05664 32.349609 L 108.05664 29.798828 L 114.32227 29.798828 L 114.32227 26.755859 L 108.05664 26.755859 L 108.05664 24.472656 L 116.02344 24.472656 C 116.51534 24.472656 116.91797 24.875129 116.91797 25.412109 L 117.36523 25.412109 L 117.36523 21.25 L 103 21.25 z M 119 21.25 L 119 21.742188 C 119.58206 21.742188 119.89453 22.100692 119.89453 22.638672 L 119.89453 35.75 L 123.60938 35.75 L 123.60938 26.710938 L 128.71094 34.675781 L 133.76758 26.666016 L 133.76758 35.75 L 137.88477 35.75 L 137.88477 22.638672 C 137.88477 22.056612 138.19988 21.770547 138.78125 21.742188 L 138.82617 21.742188 L 138.82617 21.25 L 133.0957 21.25 L 128.8457 27.740234 L 124.68164 21.25 L 119 21.25 z M 42.916016 24.177734 L 45.167969 30.123047 L 40.798828 30.123047 L 42.916016 24.177734 z M 92.070312 29.554688 L 96.244141 29.554688 C 97.636671 29.554688 98.490234 30.184075 98.490234 31.171875 C 98.490234 32.114585 97.636671 32.697266 96.244141 32.697266 L 96.244141 32.742188 L 92.070312 32.742188 L 92.070312 29.554688 z"/>
        </symbol>
        <symbol id="textEn" viewBox="0 0 143.877 36">
            <path fill="#fff" d="M 7.5898438 0 C 4.7154938 0 0.80859375 1.1368594 0.80859375 4.6308594 C 0.80859375 7.6514594 3.9250194 8.5193062 6.4121094 8.6914062 C 8.5463694 8.8291063 10.02619 9.0110844 10.84375 9.2089844 C 11.66131 9.4068844 12.064453 9.7325656 12.064453 10.197266 C 12.064453 11.668866 9.0783581 11.841797 8.0800781 11.841797 C 5.6446281 11.841797 3.7430119 11.445422 1.7636719 9.9824219 L 0 14.277344 L 0.44726562 14.441406 C 0.74846562 13.925106 1.1450231 13.73405 1.6269531 13.90625 C 3.6837531 14.62905 5.8596456 15 8.1660156 15 C 11.375996 15 15.886719 14.233119 15.886719 10.136719 C 15.886719 7.5291188 13.691724 6.0236094 9.3027344 5.6621094 C 9.2252344 5.6521094 6.599985 5.4824625 5.515625 5.1640625 C 4.913235 4.9918625 4.5957031 4.6994219 4.5957031 4.2949219 C 4.5957031 3.5376219 5.6536469 3.1582031 7.7792969 3.1582031 C 9.7156169 3.1582031 12.220604 3.6315875 13.958984 4.4921875 L 15.662109 0.94726562 L 15.25 0.7578125 C 14.96601 1.2053125 14.544113 1.3593219 14.001953 1.1699219 C 11.824673 0.40402188 9.6896737 -1.4802974e-16 7.5898438 0 z M 17 0.25 L 17 0.7109375 C 17.60488 0.7109375 17.912109 1.0161938 17.912109 1.6210938 L 17.912109 14.75 L 22.042969 14.75 L 22.042969 8.8203125 L 29.242188 8.8203125 L 29.242188 14.75 L 33.382812 14.75 L 33.382812 1.6210938 C 33.382812 1.0161938 33.690042 0.7109375 34.294922 0.7109375 L 34.294922 0.25 L 29.242188 0.25 L 29.242188 5.4628906 L 22.042969 5.4628906 L 22.042969 0.25 L 17 0.25 z M 40.539062 0.25 L 40.539062 0.69921875 C 40.988962 0.69921875 41.123719 0.96966563 40.943359 1.5097656 L 36.666016 12.769531 C 36.260226 13.715431 35.76551 14.210581 35 14.300781 L 35 14.75 L 39.728516 14.75 L 40.763672 11.869141 L 47.205078 11.869141 L 48.330078 14.75 L 53.869141 14.75 L 53.869141 14.300781 C 53.148721 14.300781 52.700228 13.986413 52.429688 13.445312 L 47.025391 0.25 L 40.539062 0.25 z M 54 0.25 L 54 0.65429688 C 54.58514 0.65429688 54.947266 0.9694875 54.947266 1.5546875 L 54.947266 14.75 L 59.089844 14.75 L 59.089844 9.4824219 L 61.521484 9.4824219 L 65.441406 14.75 L 70.84375 14.75 L 70.84375 14.300781 C 70.30269 14.300781 69.764175 13.985491 69.359375 13.400391 L 66.070312 9.0332031 C 68.186482 8.3128031 69.492187 6.77955 69.492188 4.84375 C 69.492188 2.18545 67.106176 0.25 63.728516 0.25 L 54 0.25 z M 72 0.25 L 72 0.7421875 C 72.58214 0.7421875 72.941406 1.0987187 72.941406 1.6367188 L 72.941406 14.75 L 86.681641 14.75 L 86.681641 10.455078 L 86.234375 10.455078 C 86.234375 10.992078 85.921836 11.349431 85.384766 11.394531 L 77.058594 11.394531 L 77.058594 8.84375 L 83.324219 8.84375 L 83.324219 5.7988281 L 77.058594 5.7988281 L 77.058594 3.515625 L 85.025391 3.515625 C 85.518351 3.515625 85.921865 3.9189781 85.921875 4.4550781 L 86.367188 4.4550781 L 86.367188 0.25 L 72 0.25 z M 43.917969 3.1757812 L 46.169922 9.1230469 L 41.798828 9.1230469 L 43.917969 3.1757812 z M 59.089844 3.265625 L 62.873047 3.265625 C 64.358967 3.265625 65.259766 3.8064406 65.259766 4.9316406 C 65.259766 5.9226406 64.585361 6.5078125 63.144531 6.5078125 L 59.089844 6.5078125 L 59.089844 3.265625 z M 118.58984 21 C 115.71549 21 111.80859 22.136859 111.80859 25.630859 C 111.80859 28.651459 114.92502 29.519306 117.41211 29.691406 C 119.54637 29.829106 121.02619 30.011084 121.84375 30.208984 C 122.66131 30.406884 123.06445 30.732566 123.06445 31.197266 C 123.06445 32.668866 120.07836 32.841797 119.08008 32.841797 C 116.64463 32.841797 114.74301 32.445422 112.76367 30.982422 L 111 35.277344 L 111.44727 35.441406 C 111.74847 34.925106 112.14502 34.73405 112.62695 34.90625 C 114.68375 35.62905 116.85965 36 119.16602 36 C 122.376 36 126.88672 35.233119 126.88672 31.136719 C 126.88672 28.529119 124.69172 27.023609 120.30273 26.662109 C 120.22523 26.652109 117.59998 26.482462 116.51562 26.164062 C 115.91324 25.991862 115.5957 25.699422 115.5957 25.294922 C 115.5957 24.537622 116.65365 24.158203 118.7793 24.158203 C 120.71562 24.158203 123.2206 24.631588 124.95898 25.492188 L 126.66211 21.947266 L 126.25 21.757812 C 125.96601 22.205313 125.54411 22.359322 125.00195 22.169922 C 122.82467 21.404022 120.68967 21 118.58984 21 z M 135.58984 21 C 132.71549 21 128.80859 22.136859 128.80859 25.630859 C 128.80859 28.651459 131.92502 29.519306 134.41211 29.691406 C 136.54637 29.829106 138.02619 30.011084 138.84375 30.208984 C 139.66131 30.406884 140.06445 30.732566 140.06445 31.197266 C 140.06445 32.668866 137.07836 32.841797 136.08008 32.841797 C 133.64463 32.841797 131.74301 32.445422 129.76367 30.982422 L 128 35.277344 L 128.44727 35.441406 C 128.74847 34.925106 129.14502 34.73405 129.62695 34.90625 C 131.68375 35.62905 133.85965 36 136.16602 36 C 139.376 36 143.88672 35.233119 143.88672 31.136719 C 143.88672 28.529119 141.69172 27.023609 137.30273 26.662109 C 137.22523 26.652109 134.59999 26.482462 133.51562 26.164062 C 132.91323 25.991862 132.5957 25.699422 132.5957 25.294922 C 132.5957 24.537622 133.65365 24.158203 135.7793 24.158203 C 137.71562 24.158203 140.2206 24.631588 141.95898 25.492188 L 143.66211 21.947266 L 143.25 21.757812 C 142.96601 22.205313 142.54411 22.359322 142.00195 22.169922 C 139.82467 21.404022 137.68967 21 135.58984 21 z M 0 21.25 L 0 21.710938 C 0.60488 21.710938 0.91210938 22.018247 0.91210938 22.623047 L 0.91210938 35.75 L 5.0429688 35.75 L 5.0429688 29.820312 L 12.242188 29.820312 L 12.242188 35.75 L 16.382812 35.75 L 16.382812 22.623047 C 16.382812 22.018247 16.690042 21.710937 17.294922 21.710938 L 17.294922 21.25 L 12.242188 21.25 L 12.242188 26.464844 L 5.0429688 26.464844 L 5.0429688 21.25 L 0 21.25 z M 23.539062 21.25 L 23.539062 21.699219 C 23.988962 21.699219 24.123719 21.969666 23.943359 22.509766 L 19.666016 33.769531 C 19.260226 34.715431 18.76551 35.210581 18 35.300781 L 18 35.75 L 22.728516 35.75 L 23.763672 32.869141 L 30.205078 32.869141 L 31.330078 35.75 L 36.869141 35.75 L 36.869141 35.300781 C 36.148721 35.300781 35.700228 34.986412 35.429688 34.445312 L 30.025391 21.25 L 23.539062 21.25 z M 37 21.25 L 37 21.652344 C 37.58115 21.652344 37.939453 21.964675 37.939453 22.546875 L 37.939453 35.75 L 42.068359 35.75 L 42.068359 30.587891 L 47.054688 30.587891 C 50.107707 30.587891 52.306641 28.656369 52.306641 25.917969 C 52.306641 23.134469 50.152787 21.25 47.054688 21.25 L 37 21.25 z M 53 21.25 L 53 21.652344 C 53.58115 21.652344 53.939453 21.964675 53.939453 22.546875 L 53.939453 35.75 L 58.068359 35.75 L 58.068359 30.587891 L 63.054688 30.587891 C 66.107708 30.587891 68.306641 28.658322 68.306641 25.919922 C 68.306641 23.136422 66.152787 21.25 63.054688 21.25 L 53 21.25 z M 69.5 21.25 L 69.5 21.71875 C 70.12156 21.71875 70.427734 22.007516 70.427734 22.603516 L 70.427734 34.371094 C 70.427734 34.975594 70.122098 35.28125 69.517578 35.28125 L 69.517578 35.75 L 75.476562 35.75 L 75.476562 35.28125 C 74.872043 35.28125 74.566406 34.975594 74.566406 34.371094 L 74.566406 22.603516 C 74.566406 22.007516 74.881659 21.71875 75.511719 21.71875 L 75.511719 21.25 L 69.5 21.25 z M 77 21.25 L 77 21.744141 C 77.60453 21.744141 77.910156 22.025094 77.910156 22.621094 L 77.910156 35.75 L 81.623047 35.75 L 81.623047 26.623047 L 89.976562 35.75 L 93.066406 35.75 L 93.066406 22.621094 C 93.066406 22.025094 93.382516 21.744141 93.978516 21.744141 L 93.978516 21.25 L 89.345703 21.25 L 89.337891 29.236328 L 82.03125 21.25 L 77 21.25 z M 95 21.25 L 95 21.742188 C 95.58214 21.742188 95.941406 22.098719 95.941406 22.636719 L 95.941406 35.75 L 109.68164 35.75 L 109.68164 31.455078 L 109.23438 31.455078 C 109.23438 31.992078 108.92184 32.349431 108.38477 32.394531 L 100.05859 32.394531 L 100.05859 29.84375 L 106.32422 29.84375 L 106.32422 26.798828 L 100.05859 26.798828 L 100.05859 24.515625 L 108.02539 24.515625 C 108.51835 24.515625 108.92187 24.918978 108.92188 25.455078 L 109.36719 25.455078 L 109.36719 21.25 L 95 21.25 z M 26.917969 24.175781 L 29.169922 30.123047 L 24.798828 30.123047 L 26.917969 24.175781 z M 42.115234 24.302734 L 46.291016 24.302734 C 47.862106 24.302734 48.535156 24.796125 48.535156 25.828125 C 48.535156 26.995425 47.818026 27.488281 46.291016 27.488281 L 42.115234 27.488281 L 42.115234 24.302734 z M 58.115234 24.302734 L 62.291016 24.302734 C 63.862106 24.302734 64.535156 24.797978 64.535156 25.830078 C 64.535156 26.997378 63.818026 27.490234 62.291016 27.490234 L 58.115234 27.490234 L 58.115234 24.302734 z"/>
        </symbol>
    </defs>
    <g id="logoRu">
        <g id="logoRuLarge">
            <use xlink:href="#battery" x="0" y="15" width="80" height="34"/>
            <use xlink:href="#textRu" x="91" y="14" width="150.822" height="36"/>
            <use xlink:href="#siberianWellness" x="248.5" y="0" width="22.5" height="20"/>
        </g>
        <g id="logoRuMiddle">
            <use xlink:href="#battery" x="0" y="50" width="54" height="23"/>
            <use xlink:href="#textRu" x="0" y="79" width="79.6" height="19"/>
            <use xlink:href="#siberianWellness" x="82" y="72" width="11" height="10"/>
        </g>
        <g id="logoRuSmall">
            <use xlink:href="#battery" x="0" y="98" width="54" height="23"/>
            <use xlink:href="#textRu" x="0" y="126" width="58.653" height="14"/>
            <use xlink:href="#siberianWellness" x="61" y="120" width="11" height="10"/>
        </g>
    </g>
    <g id="logoEn">
        <g id="logoEnLarge">
            <use xlink:href="#battery" x="275" y="15" width="80" height="34"/>
            <use xlink:href="#textEn" x="366" y="14" width="143.877" height="36"/>
            <use xlink:href="#siberianWellness" x="510.5" y="0" width="22.5" height="20"/>
        </g>
        <g id="logoRuMiddle">
            <use xlink:href="#battery" x="271" y="50" width="54" height="23"/>
            <use xlink:href="#textEn" x="271" y="79" width="75.94" height="19"/>
            <use xlink:href="#siberianWellness" x="350" y="72" width="11" height="10"/>
        </g>
        <g id="logoEnSmall">
            <use xlink:href="#battery" x="271" y="98" width="54" height="23"/>
            <use xlink:href="#textEn" x="271" y="126" width="55.956" height="14"/>
            <use xlink:href="#siberianWellness" x="329" y="120" width="11" height="10"/>
        </g>
    </g>
</svg>
