<svg width="21" height="21" fill="none" xmlns="http://www.w3.org/2000/svg"><circle cx="10.5" cy="10.5" r="10.5" fill="#C65CC0"/><path d="M15.96 8.589a.742.742 0 00.525-1.269 2.356 2.356 0 00-3.329 0 .742.742 0 101.05 1.05.869.869 0 011.228 0 .74.74 0 00.526.219zM3.677 12.939h0c-.29.29-.29.76 0 1.05a9.62 9.62 0 006.823 2.823c2.47 0 4.942-.94 6.823-2.822a.743.743 0 00-1.05-1.051c-3.183 3.183-8.362 3.183-11.545 0h0a.744.744 0 00-1.051 0zM7.722 8.248l.122.122c.29-.29.29-.76 0-1.05h0a2.343 2.343 0 00-1.665-.69 2.34 2.34 0 00-1.664.69.743.743 0 001.051 1.05l-.123-.122.123.123a.863.863 0 01.613-.255c.233 0 .45.09.614.254a.74.74 0 001.052 0l-.123-.122zm0 0a.566.566 0 01-.806 0 1.034 1.034 0 00-.737-.305c-.277 0-.539.108-.736.305a.569.569 0 11-.805-.806c.411-.411.959-.638 1.541-.638.583 0 1.13.227 1.543.638a.57.57 0 010 .806z" fill="#fff" stroke="#fff" stroke-width=".347"/></svg>